<?xml version="1.0" encoding="UTF-8"?> <svg xmlns="http://www.w3.org/2000/svg" id="Calque_1" data-name="Calque 1" viewBox="0 0 400 400"><defs><style>.cls-1{fill:#eaf7ef;}.cls-2{fill:#75d89d;}.cls-3{fill:#ccccd6;}.cls-4{fill:#fff;}.cls-5{fill:#f2f2f2;}.cls-6{fill:#30ac67;}.cls-7{fill:#54c682;}.cls-8{fill:#2f2e41;}.cls-10,.cls-18,.cls-9{fill:none;stroke-miterlimit:10;}.cls-9{stroke:#2f2e41;}.cls-10{stroke:#3f3d56;}.cls-11{fill:#3f3d56;}.cls-12{fill:#dd9978;}.cls-13{fill:#fec29e;}.cls-14{fill:#4d3952;}.cls-15{fill:#9e9ea8;}.cls-16{fill:#268e50;}.cls-17{fill:#545368;}.cls-18{stroke:#fff;}</style></defs><title>livreur copie 2</title><path class="cls-1" d="M389.86,256.62c-.93-10.85-6.31-21.22-13.39-29.65-8.4-10-19.08-17.79-29.34-25.88-8.35-6.59-17.23-15.06-16.72-25.67.41-8.64,7-15.58,10.23-23.59,6.05-14.94-.19-32.37-10.33-44.9-6.22-7.68-14.13-14.34-23.56-17.31s-20.52-1.73-28,4.74c-5.41,4.68-8.43,11.46-12.29,17.48S257,123.67,249.9,124.23c-6.44.5-12.43-3.47-16.89-8.16s-8-10.26-12.83-14.52c-13.86-12.1-32.56-9.08-45.9,1.77-7.69,6.24-16.31,15.77-27.17,14.68-11-1.1-17.7-12.23-26.33-19.15a39.09,39.09,0,0,0-33.67-7.21C58.67,99,51.24,133.64,61.59,158c3.66,8.57,9.53,17.74,6.19,26.44-1.45,3.76-4.46,6.69-7.47,9.38C49,203.84,36.39,212.45,26.25,223.67s-17.74,26-16,41c2.07,17.92,17.18,32.16,34,38.58s35.36,6.49,53.4,6.48l204-.09c18.41,0,37.32-.1,54.46-6.82s32.34-21.68,33.75-40A38.13,38.13,0,0,0,389.86,256.62Z"></path><path class="cls-1" d="M149.49,61.9a7.73,7.73,0,0,0-2.51.42,11.05,11.05,0,0,0-20.69.1,7.81,7.81,0,0,0-2.79-.52,7.73,7.73,0,0,0,0,15.45h26a7.73,7.73,0,1,0,0-15.45Z"></path><path class="cls-1" d="M49.92,171.76a8.68,8.68,0,0,0-2.76.46,12.1,12.1,0,0,0-22.65.11,8.46,8.46,0,1,0-3.05,16.35H49.92a8.46,8.46,0,0,0,0-16.92Z"></path><path class="cls-1" d="M351.22,67a8.42,8.42,0,0,0-2.76.47,12.1,12.1,0,0,0-22.65.11,8.36,8.36,0,0,0-3.05-.58,8.46,8.46,0,1,0,0,16.92h28.46a8.46,8.46,0,0,0,0-16.92Z"></path><polygon class="cls-2" points="109.72 165.89 109.72 158.7 92.32 158.7 92.32 162.29 84.09 162.29 84.09 158.7 76.9 158.7 76.9 165.89 71.43 165.89 71.43 308.68 120.37 308.68 120.37 165.89 109.72 165.89"></polygon><polygon class="cls-3" points="160.51 136.97 160.51 128.31 136.18 128.31 136.18 132.64 124.69 132.64 124.69 128.31 114.63 128.31 114.63 136.97 106.98 136.97 106.98 308.68 175.4 308.68 175.4 136.97 160.51 136.97"></polygon><polygon class="cls-2" points="363.7 198.49 363.7 192.87 346.3 192.87 346.3 195.68 338.07 195.68 338.07 192.87 330.88 192.87 330.88 198.49 325.41 198.49 325.41 309.99 374.35 309.99 374.35 198.49 363.7 198.49"></polygon><polygon class="cls-4" points="256.25 148.91 256.25 308.68 261.19 308.68 278.15 308.68 283 308.68 299.95 308.68 304.8 308.68 321.76 308.68 325.31 308.68 325.31 148.91 256.25 148.91"></polygon><rect class="cls-5" x="204.03" y="109.07" width="68.42" height="199.61"></rect><rect class="cls-3" x="211.68" y="261.19" width="14.49" height="34.21"></rect><rect class="cls-3" x="231" y="261.19" width="14.49" height="34.21"></rect><rect class="cls-3" x="250.31" y="261.19" width="14.49" height="34.21"></rect><rect class="cls-4" x="211.68" y="121.94" width="14.49" height="34.21"></rect><rect class="cls-4" x="231" y="121.94" width="14.49" height="34.21"></rect><rect class="cls-4" x="250.31" y="121.94" width="14.49" height="34.21"></rect><rect class="cls-4" x="211.68" y="164.2" width="14.49" height="88.94"></rect><rect class="cls-4" x="231" y="164.2" width="14.49" height="88.94"></rect><rect class="cls-4" x="250.31" y="164.2" width="14.49" height="88.94"></rect><path class="cls-5" d="M233.23,99h0a5,5,0,0,1-5,5h-1.43a5,5,0,0,1-5-5h0a10.06,10.06,0,0,0-10.06,10.07h45.88A10.07,10.07,0,0,0,247.5,99Z"></path><rect class="cls-5" x="51.98" y="215.31" width="110.42" height="93.37"></rect><rect class="cls-4" x="94.15" y="282.12" width="26.08" height="28.04"></rect><rect class="cls-4" x="60.02" y="227.01" width="27.24" height="48.84"></rect><rect class="cls-4" x="93.57" y="227.01" width="27.24" height="48.84"></rect><rect class="cls-4" x="127.11" y="227.01" width="27.24" height="48.84"></rect><path class="cls-5" d="M132,208.67h10a6.64,6.64,0,0,1,6.64,6.64v0a0,0,0,0,1,0,0H125.4a0,0,0,0,1,0,0v0A6.64,6.64,0,0,1,132,208.67Z"></path><path class="cls-5" d="M83.45,208.87H74.14a6.44,6.44,0,0,0-6.44,6.44H89.89A6.44,6.44,0,0,0,83.45,208.87Z"></path><rect class="cls-5" x="162.32" y="186.34" width="43.06" height="122.34"></rect><rect class="cls-4" x="170.78" y="291.68" width="12.98" height="17"></rect><rect class="cls-4" x="183.96" y="291.68" width="12.98" height="17"></rect><rect class="cls-4" x="169.68" y="277.46" width="28.35" height="8.28"></rect><rect class="cls-4" x="169.68" y="263.25" width="28.35" height="8.28"></rect><rect class="cls-4" x="169.68" y="249.03" width="28.35" height="8.28"></rect><rect class="cls-4" x="169.68" y="234.81" width="28.35" height="8.28"></rect><rect class="cls-4" x="169.68" y="220.6" width="28.35" height="8.28"></rect><rect class="cls-4" x="169.68" y="206.38" width="28.35" height="8.28"></rect><rect class="cls-4" x="169.68" y="192.17" width="28.35" height="8.28"></rect><polygon class="cls-2" points="204.95 178.78 161.88 178.78 157.64 187.06 210.07 187.06 204.95 178.78"></polygon><rect class="cls-5" x="272.45" y="165.94" width="69.05" height="142.73"></rect><rect class="cls-4" x="277.39" y="173.81" width="60.56" height="8.28"></rect><rect class="cls-4" x="277.39" y="186.47" width="60.56" height="8.28"></rect><rect class="cls-4" x="277.39" y="199.12" width="60.56" height="8.28"></rect><rect class="cls-4" x="277.39" y="211.78" width="60.56" height="8.28"></rect><rect class="cls-4" x="277.39" y="224.44" width="60.56" height="8.28"></rect><rect class="cls-4" x="277.39" y="237.09" width="60.56" height="8.28"></rect><rect class="cls-4" x="277.39" y="249.75" width="60.56" height="8.28"></rect><rect class="cls-4" x="277.39" y="262.41" width="60.56" height="8.28"></rect><rect class="cls-4" x="277.39" y="275.07" width="60.56" height="8.28"></rect><rect class="cls-4" x="277.39" y="289.97" width="16.96" height="18.71"></rect><rect class="cls-4" x="299.19" y="289.97" width="16.96" height="18.71"></rect><rect class="cls-4" x="320.99" y="289.97" width="16.96" height="18.71"></rect><path class="cls-6" d="M376.3,276a20.2,20.2,0,0,1-9.5,11,31.12,31.12,0,0,1-14.29,3.6,37.83,37.83,0,0,1-9.38-.87,31.19,31.19,0,0,1-6.95-2.44,24.75,24.75,0,0,1-11.62-11.72,24.36,24.36,0,0,1,.72-20.39,30.77,30.77,0,0,1,14.33-14,20,20,0,0,1,11.55-1.75,12.82,12.82,0,0,1,9.06,5.87c1.21,2.1,1.68,4.56,2.91,6.64,2.52,4.26,7.72,6.18,10.87,10a13.29,13.29,0,0,1,2.51,4.85A15.8,15.8,0,0,1,376.3,276Z"></path><path class="cls-7" d="M338.35,308.32h0a.49.49,0,0,1-.49-.49,59.35,59.35,0,0,1,1.89-16.12,24.68,24.68,0,0,1,7.83-12c2.71-2.38,4.78-3.75,6.13-4.07a.48.48,0,0,1,.59.36.5.5,0,0,1-.36.59c-.83.19-2.48,1-5.72,3.86A23.71,23.71,0,0,0,340.69,292a58.29,58.29,0,0,0-1.85,15.85A.49.49,0,0,1,338.35,308.32Z"></path><path class="cls-7" d="M354.78,283.87h-.18c-2.86-.33-5.56-.64-8.08-2.19a.49.49,0,1,1,.51-.83c2.34,1.43,4.93,1.73,7.69,2.05h.12a.49.49,0,0,1-.06,1Z"></path><path class="cls-7" d="M343.19,285.93h-.1a.49.49,0,0,1-.38-.57c1.53-7.62.91-18-3.91-24.14a.49.49,0,0,1,.77-.61c5,6.35,5.67,17.1,4.1,24.94A.49.49,0,0,1,343.19,285.93Z"></path><path class="cls-7" d="M343.32,269.89a.45.45,0,0,1-.32-.13.48.48,0,0,1,0-.68c1.77-2,2.7-6.07,2.54-8.72a.5.5,0,0,1,.46-.52.47.47,0,0,1,.52.46c.17,2.91-.83,7.22-2.79,9.43A.52.52,0,0,1,343.32,269.89Z"></path><path class="cls-7" d="M343.33,273.7c-2.94,0-8.1-3.38-9.16-5.68a.49.49,0,0,1,.24-.64.49.49,0,0,1,.65.23c.93,2,6.2,5.39,8.57,5.1a.48.48,0,0,1,.12,1A2.77,2.77,0,0,1,343.33,273.7Z"></path><path class="cls-2" d="M354.93,302.66a7.94,7.94,0,0,1-3.05,4.86,12.37,12.37,0,0,1-5.35,2.26,14.91,14.91,0,0,1-3.71.22,12.14,12.14,0,0,1-2.86-.54,9.7,9.7,0,0,1-5.23-3.87,9.58,9.58,0,0,1-1-8,12.18,12.18,0,0,1,4.75-6.33,7.89,7.89,0,0,1,4.4-1.37,5,5,0,0,1,3.89,1.75c.59.74.92,1.67,1.53,2.41,1.24,1.51,3.38,1.95,4.84,3.25a5.32,5.32,0,0,1,1.27,1.74A6.3,6.3,0,0,1,354.93,302.66Z"></path><path class="cls-7" d="M342.59,308.82h0a.48.48,0,0,1-.46-.51c.13-3-.7-6.92-2.88-8.95a.49.49,0,0,1,.67-.71c2.4,2.24,3.33,6.49,3.18,9.71A.48.48,0,0,1,342.59,308.82Z"></path><path class="cls-7" d="M341.67,302.56a.5.5,0,0,1-.41-.76,5.06,5.06,0,0,0,.43-3.33.49.49,0,0,1,1-.2,6,6,0,0,1-.57,4.06A.48.48,0,0,1,341.67,302.56Z"></path><path class="cls-7" d="M341.67,304.06a5.84,5.84,0,0,1-3.89-1.82.48.48,0,1,1,.81-.53,4.7,4.7,0,0,0,3.32,1.34.49.49,0,0,1,.6.34.47.47,0,0,1-.33.6A1.61,1.61,0,0,1,341.67,304.06Z"></path><path class="cls-7" d="M342.65,309a.5.5,0,0,1-.17,0,.5.5,0,0,1-.29-.63c1.09-3,3.58-6.6,6.65-7.76a.49.49,0,0,1,.63.29.49.49,0,0,1-.28.63c-2.79,1-5.06,4.35-6.08,7.17A.48.48,0,0,1,342.65,309Z"></path><path class="cls-7" d="M345.88,303.57a.49.49,0,0,1-.48-.4,6.13,6.13,0,0,1,1-4,.5.5,0,0,1,.68-.13.49.49,0,0,1,.13.68,5.22,5.22,0,0,0-.88,3.24.48.48,0,0,1-.39.57Z"></path><path class="cls-7" d="M347.05,305.23a4.14,4.14,0,0,1-2.37-.56.49.49,0,1,1,.61-.77,4.72,4.72,0,0,0,3.58,0,.5.5,0,0,1,.68.13.49.49,0,0,1-.13.68A4.67,4.67,0,0,1,347.05,305.23Z"></path><path class="cls-1" d="M347.35,303.42a8,8,0,0,0,3,4.86,12.17,12.17,0,0,0,5.36,2.26,14.88,14.88,0,0,0,3.71.23,12,12,0,0,0,2.85-.54,9.72,9.72,0,0,0,5.24-3.87,9.62,9.62,0,0,0,.94-8,12.11,12.11,0,0,0-4.74-6.33,7.94,7.94,0,0,0-4.4-1.37,5.05,5.05,0,0,0-3.89,1.74c-.6.75-.93,1.68-1.53,2.42-1.24,1.51-3.39,1.94-4.84,3.25a5.08,5.08,0,0,0-1.27,1.74A6.18,6.18,0,0,0,347.35,303.42Z"></path><path class="cls-7" d="M359.69,309.59a.49.49,0,0,1-.49-.47c-.14-3.22.79-7.47,3.19-9.71a.49.49,0,0,1,.69,0,.5.5,0,0,1,0,.69c-2.18,2-3,5.95-2.88,8.95a.49.49,0,0,1-.47.51Z"></path><path class="cls-7" d="M360.6,303.32a.48.48,0,0,1-.41-.22,6.06,6.06,0,0,1-.56-4.06.48.48,0,0,1,.58-.38.49.49,0,0,1,.37.58,5.2,5.2,0,0,0,.43,3.33.5.5,0,0,1-.14.68A.52.52,0,0,1,360.6,303.32Z"></path><path class="cls-7" d="M360.61,304.82a2,2,0,0,1-.51-.06.49.49,0,0,1-.34-.6.5.5,0,0,1,.61-.34,4.68,4.68,0,0,0,3.31-1.35.51.51,0,0,1,.68-.14.49.49,0,0,1,.14.68A5.9,5.9,0,0,1,360.61,304.82Z"></path><path class="cls-7" d="M359.63,309.78a.48.48,0,0,1-.46-.32c-1-2.82-3.29-6.13-6.08-7.17a.5.5,0,0,1-.29-.63.48.48,0,0,1,.63-.29c3.08,1.15,5.56,4.73,6.66,7.76a.48.48,0,0,1-.3.62A.45.45,0,0,1,359.63,309.78Z"></path><path class="cls-7" d="M356.39,304.34h-.09a.49.49,0,0,1-.39-.57,5.12,5.12,0,0,0-.87-3.24.49.49,0,0,1,.12-.68.49.49,0,0,1,.68.13,6,6,0,0,1,1,4A.49.49,0,0,1,356.39,304.34Z"></path><path class="cls-7" d="M355.22,306a4.76,4.76,0,0,1-2.36-.5.49.49,0,0,1,.54-.81,4.84,4.84,0,0,0,3.59,0,.49.49,0,0,1,.6.77A4.2,4.2,0,0,1,355.22,306Z"></path><path class="cls-2" d="M154.71,302.66a8,8,0,0,1-3,4.86,12.46,12.46,0,0,1-5.36,2.26,14.88,14.88,0,0,1-3.71.22,12.14,12.14,0,0,1-2.86-.54,9.74,9.74,0,0,1-5.23-3.87,9.58,9.58,0,0,1-.94-8,12.11,12.11,0,0,1,4.74-6.33,7.91,7.91,0,0,1,4.4-1.37,5,5,0,0,1,3.89,1.75c.6.74.93,1.67,1.53,2.41,1.24,1.51,3.39,1.95,4.84,3.25a5.18,5.18,0,0,1,1.27,1.74A6.21,6.21,0,0,1,154.71,302.66Z"></path><path class="cls-7" d="M142.37,308.82h0a.49.49,0,0,1-.47-.51c.14-3-.7-6.92-2.88-8.95a.5.5,0,0,1,0-.69.48.48,0,0,1,.69,0c2.4,2.24,3.33,6.49,3.19,9.71A.49.49,0,0,1,142.37,308.82Z"></path><path class="cls-7" d="M141.46,302.56a.53.53,0,0,1-.27-.08.5.5,0,0,1-.14-.68,5.19,5.19,0,0,0,.43-3.33.49.49,0,1,1,1-.2,6,6,0,0,1-.56,4.06A.49.49,0,0,1,141.46,302.56Z"></path><path class="cls-7" d="M141.45,304.06a5.9,5.9,0,0,1-3.89-1.81.49.49,0,0,1,.14-.68.5.5,0,0,1,.68.13,4.74,4.74,0,0,0,3.31,1.35.5.5,0,0,1,.61.34.49.49,0,0,1-.34.6A1.61,1.61,0,0,1,141.45,304.06Z"></path><path class="cls-7" d="M142.43,309a.44.44,0,0,1-.16,0,.5.5,0,0,1-.3-.63c1.1-3,3.58-6.61,6.66-7.76a.49.49,0,0,1,.34.92c-2.79,1-5.06,4.35-6.08,7.17A.48.48,0,0,1,142.43,309Z"></path><path class="cls-7" d="M145.67,303.57a.48.48,0,0,1-.48-.4,6,6,0,0,1,1-4,.49.49,0,1,1,.8.55,5.15,5.15,0,0,0-.87,3.24.49.49,0,0,1-.4.57Z"></path><path class="cls-7" d="M146.84,305.23a4.17,4.17,0,0,1-2.38-.56.49.49,0,0,1,.61-.77,4.72,4.72,0,0,0,3.58,0,.5.5,0,0,1,.68.13.49.49,0,0,1-.13.68A4.65,4.65,0,0,1,146.84,305.23Z"></path><path class="cls-1" d="M147.13,303.42a7.94,7.94,0,0,0,3.05,4.86,12.14,12.14,0,0,0,5.35,2.26,14.91,14.91,0,0,0,3.71.23,12.14,12.14,0,0,0,2.86-.54,9.19,9.19,0,0,0,6.18-11.86,12.18,12.18,0,0,0-4.75-6.33,7.89,7.89,0,0,0-4.4-1.37,5.05,5.05,0,0,0-3.89,1.74c-.6.75-.93,1.68-1.53,2.42-1.24,1.51-3.38,1.94-4.84,3.25a5.21,5.21,0,0,0-1.27,1.74A6.26,6.26,0,0,0,147.13,303.42Z"></path><path class="cls-7" d="M159.47,309.59a.48.48,0,0,1-.48-.47c-.15-3.22.78-7.47,3.18-9.71a.49.49,0,0,1,.69,0,.48.48,0,0,1,0,.69c-2.18,2-3,5.95-2.88,8.95a.49.49,0,0,1-.46.51Z"></path><path class="cls-7" d="M160.38,303.32a.49.49,0,0,1-.41-.22,6.06,6.06,0,0,1-.56-4.06.49.49,0,0,1,.58-.38.5.5,0,0,1,.38.58,5.07,5.07,0,0,0,.43,3.33.48.48,0,0,1-.42.75Z"></path><path class="cls-7" d="M160.39,304.82a2,2,0,0,1-.51-.06.47.47,0,0,1-.33-.6.48.48,0,0,1,.6-.34,4.72,4.72,0,0,0,3.32-1.35.5.5,0,0,1,.68-.14.49.49,0,0,1,.13.68A5.9,5.9,0,0,1,160.39,304.82Z"></path><path class="cls-7" d="M159.41,309.78a.48.48,0,0,1-.46-.32c-1-2.82-3.29-6.13-6.08-7.17a.49.49,0,0,1-.28-.63.48.48,0,0,1,.63-.29c3.07,1.15,5.55,4.73,6.65,7.76a.49.49,0,0,1-.29.62Z"></path><path class="cls-7" d="M156.18,304.34h-.09a.48.48,0,0,1-.39-.57,5.19,5.19,0,0,0-.88-3.24.49.49,0,0,1,.13-.68.5.5,0,0,1,.68.13,6.12,6.12,0,0,1,1,4A.5.5,0,0,1,156.18,304.34Z"></path><path class="cls-7" d="M155,306a4.76,4.76,0,0,1-2.36-.5.49.49,0,1,1,.55-.81,4.82,4.82,0,0,0,3.58,0,.49.49,0,1,1,.61.77A4.23,4.23,0,0,1,155,306Z"></path><path class="cls-6" d="M23,275.34a20.21,20.21,0,0,0,9.51,11,31.29,31.29,0,0,0,14.28,3.6,38,38,0,0,0,9.39-.87,31.11,31.11,0,0,0,6.94-2.44,24.75,24.75,0,0,0,11.62-11.72A24.33,24.33,0,0,0,74,254.52a30.7,30.7,0,0,0-14.32-14,20,20,0,0,0-11.56-1.75,12.82,12.82,0,0,0-9.06,5.87c-1.21,2.09-1.68,4.56-2.91,6.64-2.52,4.26-7.72,6.18-10.87,10a13.42,13.42,0,0,0-2.51,4.86A15.8,15.8,0,0,0,23,275.34Z"></path><path class="cls-7" d="M61,307.68a.49.49,0,0,1-.49-.49,57.84,57.84,0,0,0-1.85-15.85A23.66,23.66,0,0,0,51.1,279.8c-3.23-2.83-4.89-3.66-5.71-3.86a.49.49,0,0,1,.22-.95c1.36.33,3.42,1.7,6.14,4.08a24.62,24.62,0,0,1,7.82,12,59.35,59.35,0,0,1,1.89,16.12.49.49,0,0,1-.49.49Z"></path><path class="cls-7" d="M44.54,283.22a.49.49,0,0,1,0-1h.13c2.75-.32,5.34-.62,7.67-2.05a.48.48,0,0,1,.67.16.49.49,0,0,1-.16.67c-2.51,1.54-5.21,1.86-8.07,2.19h-.19Z"></path><path class="cls-7" d="M56.13,285.29a.49.49,0,0,1-.48-.39c-1.57-7.84-.91-18.59,4.1-24.94a.49.49,0,0,1,.69-.08.5.5,0,0,1,.08.69c-4.82,6.1-5.44,16.52-3.91,24.14a.48.48,0,0,1-.38.57Z"></path><path class="cls-7" d="M56,269.25a.51.51,0,0,1-.37-.17c-2-2.2-3-6.52-2.79-9.42a.48.48,0,0,1,.52-.46.49.49,0,0,1,.46.52c-.16,2.64.77,6.73,2.54,8.71a.48.48,0,0,1,0,.69A.44.44,0,0,1,56,269.25Z"></path><path class="cls-7" d="M56,273.06a2.86,2.86,0,0,1-.42,0,.48.48,0,0,1-.42-.54.49.49,0,0,1,.54-.43c2.36.29,7.64-3.08,8.57-5.09a.5.5,0,0,1,.65-.24.49.49,0,0,1,.24.65C64.09,269.68,58.93,273.06,56,273.06Z"></path><path class="cls-2" d="M44.39,302a8,8,0,0,0,3,4.85,12.13,12.13,0,0,0,5.36,2.26,14.42,14.42,0,0,0,3.71.23,12.06,12.06,0,0,0,2.85-.54A9.76,9.76,0,0,0,64.6,305a9.62,9.62,0,0,0,.94-8,12.18,12.18,0,0,0-4.75-6.33,7.89,7.89,0,0,0-4.4-1.37A5,5,0,0,0,52.51,291c-.6.75-.93,1.68-1.54,2.42-1.24,1.51-3.38,1.94-4.84,3.25a5.35,5.35,0,0,0-1.27,1.74A6.29,6.29,0,0,0,44.39,302Z"></path><path class="cls-7" d="M56.74,308.18a.49.49,0,0,1-.49-.47c-.15-3.22.78-7.47,3.19-9.7a.48.48,0,0,1,.69,0,.49.49,0,0,1,0,.69c-2.17,2-3,5.95-2.87,8.95a.49.49,0,0,1-.47.51Z"></path><path class="cls-7" d="M57.65,301.92a.48.48,0,0,1-.41-.23,6.06,6.06,0,0,1-.57-4.06.49.49,0,1,1,1,.2,5.13,5.13,0,0,0,.43,3.33.49.49,0,0,1-.15.68A.5.5,0,0,1,57.65,301.92Z"></path><path class="cls-7" d="M57.65,303.42a1.66,1.66,0,0,1-.51-.07.47.47,0,0,1-.33-.6.49.49,0,0,1,.6-.34,4.79,4.79,0,0,0,3.32-1.35.49.49,0,0,1,.82.54A5.91,5.91,0,0,1,57.65,303.42Z"></path><path class="cls-7" d="M56.67,308.37a.49.49,0,0,1-.46-.32c-1-2.82-3.29-6.13-6.07-7.17a.49.49,0,1,1,.34-.92c3.08,1.15,5.56,4.73,6.65,7.76a.49.49,0,0,1-.29.62A.47.47,0,0,1,56.67,308.37Z"></path><path class="cls-7" d="M53.44,302.93h-.09a.49.49,0,0,1-.39-.57,5.13,5.13,0,0,0-.88-3.24.49.49,0,1,1,.81-.55,6.06,6.06,0,0,1,1,4A.48.48,0,0,1,53.44,302.93Z"></path><path class="cls-7" d="M52.27,304.59a4.8,4.8,0,0,1-2.37-.5.49.49,0,0,1,.55-.81,4.72,4.72,0,0,0,3.58,0,.49.49,0,1,1,.61.77A4.14,4.14,0,0,1,52.27,304.59Z"></path><path class="cls-6" d="M52,302.78a8,8,0,0,1-3,4.86,12.24,12.24,0,0,1-5.36,2.26,14.88,14.88,0,0,1-3.71.23,12,12,0,0,1-2.85-.54,9.76,9.76,0,0,1-5.24-3.87,9.64,9.64,0,0,1-.94-8,12.19,12.19,0,0,1,4.75-6.32A8,8,0,0,1,40,290a5.09,5.09,0,0,1,3.88,1.75c.6.74.93,1.68,1.54,2.41,1.24,1.52,3.38,1.95,4.84,3.25a5.5,5.5,0,0,1,1.27,1.75A6.26,6.26,0,0,1,52,302.78Z"></path><path class="cls-7" d="M39.63,309h0a.5.5,0,0,1-.47-.51c.14-3-.7-6.93-2.87-8.95a.49.49,0,0,1,.66-.72c2.41,2.24,3.34,6.49,3.19,9.71A.49.49,0,0,1,39.63,309Z"></path><path class="cls-7" d="M38.72,302.68a.42.42,0,0,1-.26-.08.48.48,0,0,1-.15-.67,5.14,5.14,0,0,0,.43-3.33.49.49,0,0,1,1-.21,6.14,6.14,0,0,1-.57,4.07A.49.49,0,0,1,38.72,302.68Z"></path><path class="cls-7" d="M38.72,304.18a5.9,5.9,0,0,1-3.9-1.81.5.5,0,0,1,.14-.68.5.5,0,0,1,.68.14A4.75,4.75,0,0,0,39,303.18a.49.49,0,0,1,.6.33.48.48,0,0,1-.33.61A2,2,0,0,1,38.72,304.18Z"></path><path class="cls-7" d="M39.7,309.14a.51.51,0,0,1-.17,0,.49.49,0,0,1-.29-.62c1.09-3,3.57-6.61,6.65-7.76a.49.49,0,1,1,.34.91c-2.78,1-5.06,4.36-6.07,7.18A.49.49,0,0,1,39.7,309.14Z"></path><path class="cls-7" d="M42.93,303.7a.49.49,0,0,1-.48-.4,6,6,0,0,1,1-4,.49.49,0,0,1,.81.56,5.13,5.13,0,0,0-.88,3.24.49.49,0,0,1-.39.57Z"></path><path class="cls-7" d="M44.1,305.36a4.22,4.22,0,0,1-2.37-.56.49.49,0,0,1,.61-.77,4.82,4.82,0,0,0,3.58,0,.49.49,0,0,1,.68.13.49.49,0,0,1-.14.68A4.73,4.73,0,0,1,44.1,305.36Z"></path><rect class="cls-6" x="31.76" y="308.68" width="345.29" height="2.87"></rect><path class="cls-8" d="M173.73,234.69c-.3-8.11-31.49-40.7-31.49-40.7l-25-7.05s-5.58,16.84,4.24,27.65c12.08,13.3,36.46,21.15,36.46,21.15l-17.68,37.42-7.1,14.43,8.14,4s32.73-48.8,32.43-56.91Z"></path><path class="cls-8" d="M134.74,284.38s-.63,3.94,8.53,4.25c4.77,2.53,21,13.3,16.45,13.55-2.58.14-30.59-7.6-30.59-7.6C129.59,289.76,131.16,287.59,134.74,284.38Z"></path><rect class="cls-5" x="329.22" y="284.81" width="1.01" height="27.32"></rect><rect class="cls-5" x="325.68" y="285.27" width="1.01" height="27.32" transform="matrix(0.97, -0.26, 0.26, 0.97, -66.25, 94.61)"></rect><rect class="cls-5" x="322.39" y="286.64" width="1.01" height="27.32" transform="translate(-106.89 201.68) rotate(-30)"></rect><rect class="cls-5" x="319.56" y="288.81" width="1.01" height="27.32" transform="translate(-120.13 314.91) rotate(-45)"></rect><rect class="cls-5" x="317.39" y="291.64" width="1.01" height="27.32" transform="translate(-105.45 427.95) rotate(-60)"></rect><rect class="cls-5" x="316.03" y="294.93" width="1.01" height="27.32" transform="translate(-63.47 534.47) rotate(-75)"></rect><rect class="cls-5" x="302.4" y="311.62" width="27.32" height="1.01"></rect><rect class="cls-5" x="302.87" y="315.16" width="27.32" height="1.01" transform="translate(-70.91 92.67) rotate(-15)"></rect><rect class="cls-5" x="304.23" y="318.45" width="27.32" height="1.01" transform="translate(-116.82 201.44) rotate(-29.97)"></rect><rect class="cls-5" x="306.41" y="321.28" width="27.32" height="1.01" transform="translate(-133.79 320.57) rotate(-45)"></rect><rect class="cls-5" x="309.23" y="323.45" width="27.32" height="1.01" transform="translate(-119.03 441.89) rotate(-60.04)"></rect><rect class="cls-5" x="312.53" y="324.82" width="27.32" height="1.01" transform="translate(-72.48 556.17) rotate(-75)"></rect><rect class="cls-5" x="329.22" y="312.13" width="1.01" height="27.32"></rect><rect class="cls-5" x="332.76" y="311.66" width="1.01" height="27.32" transform="translate(-72.85 97.35) rotate(-15)"></rect><rect class="cls-5" x="336.05" y="310.3" width="1.01" height="27.32" transform="translate(-116.89 211.68) rotate(-30)"></rect><rect class="cls-5" x="338.88" y="308.13" width="1.01" height="27.32" transform="translate(-128.13 334.24) rotate(-45)"></rect><rect class="cls-5" x="341.05" y="305.3" width="1.01" height="27.32" transform="translate(-105.45 455.27) rotate(-60)"></rect><rect class="cls-5" x="342.41" y="302" width="1.01" height="27.32" transform="translate(-50.74 565.2) rotate(-75)"></rect><rect class="cls-5" x="329.72" y="311.62" width="27.32" height="1.01"></rect><rect class="cls-5" x="329.26" y="308.09" width="27.32" height="1.01" transform="translate(-68.18 99.26) rotate(-15)"></rect><rect class="cls-5" x="327.89" y="304.79" width="27.32" height="1.01" transform="translate(-106.83 211.38) rotate(-29.96)"></rect><rect class="cls-5" x="325.72" y="301.96" width="27.32" height="1.01" transform="translate(-114.47 328.57) rotate(-45)"></rect><rect class="cls-5" x="322.89" y="299.79" width="27.32" height="1.01" transform="translate(-91.7 441.89) rotate(-60.04)"></rect><rect class="cls-5" x="319.6" y="298.43" width="27.32" height="1.01" transform="translate(-41.74 543.47) rotate(-75)"></rect><path class="cls-8" d="M329.69,345.15a33.49,33.49,0,1,1,33.49-33.49A33.53,33.53,0,0,1,329.69,345.15Zm0-58.93a25.44,25.44,0,1,0,25.44,25.44A25.48,25.48,0,0,0,329.69,286.22Z"></path><path class="cls-6" d="M40.86,300.15h-4A49.37,49.37,0,0,1,119.39,264l-2.69,3a45.37,45.37,0,0,0-75.84,33.19Z"></path><rect class="cls-5" x="85.63" y="262.88" width="1.01" height="37.53"></rect><rect class="cls-5" x="80.77" y="263.52" width="1.01" height="37.53" transform="translate(-70.29 30.66) rotate(-15)"></rect><rect class="cls-5" x="76.25" y="265.39" width="1.01" height="37.53" transform="translate(-131.8 76.45) rotate(-30)"></rect><rect class="cls-5" x="72.36" y="268.38" width="1.01" height="37.53" transform="translate(-181.7 135.63) rotate(-45)"></rect><rect class="cls-5" x="69.38" y="272.26" width="1.01" height="37.53" transform="translate(-217.1 206.04) rotate(-60)"></rect><rect class="cls-5" x="67.5" y="276.79" width="1.01" height="37.53" transform="translate(-235.07 284.75) rotate(-75)"></rect><rect class="cls-5" x="48.6" y="299.9" width="37.53" height="1.01"></rect><rect class="cls-5" x="49.24" y="304.76" width="37.53" height="1.01" transform="translate(-76.68 28) rotate(-15)"></rect><rect class="cls-5" x="51.12" y="309.28" width="37.53" height="1.01" transform="translate(-145.55 76.46) rotate(-30)"></rect><rect class="cls-5" x="54.1" y="313.17" width="37.53" height="1.01" transform="translate(-200.45 143.38) rotate(-45)"></rect><rect class="cls-5" x="57.99" y="316.15" width="37.53" height="1.01" transform="translate(-235.91 224.99) rotate(-60.04)"></rect><rect class="cls-5" x="62.51" y="318.03" width="37.53" height="1.01" transform="translate(-247.44 314.58) rotate(-75)"></rect><rect class="cls-5" x="85.63" y="300.41" width="1.01" height="37.53"></rect><rect class="cls-5" x="90.48" y="299.77" width="1.01" height="37.53" transform="translate(-79.34 34.4) rotate(-15)"></rect><rect class="cls-5" x="95.01" y="297.89" width="1.01" height="37.53" transform="translate(-145.53 90.18) rotate(-30)"></rect><rect class="cls-5" x="98.9" y="294.91" width="1.01" height="37.53" transform="translate(-192.69 162.16) rotate(-45)"></rect><rect class="cls-5" x="101.88" y="291.03" width="1.01" height="37.53" transform="translate(-217.09 243.56) rotate(-60)"></rect><rect class="cls-5" x="103.75" y="286.5" width="1.01" height="37.53" transform="matrix(0.26, -0.97, 0.97, 0.26, -217.59, 326.95)"></rect><rect class="cls-5" x="86.13" y="299.9" width="37.53" height="1.01"></rect><rect class="cls-5" x="85.49" y="295.05" width="37.53" height="1.01" transform="translate(-72.94 37.05) rotate(-15)"></rect><rect class="cls-5" x="83.62" y="290.52" width="37.53" height="1.01" transform="translate(-131.81 90.2) rotate(-30)"></rect><rect class="cls-5" x="80.64" y="286.64" width="37.53" height="1.01" transform="translate(-173.93 154.4) rotate(-45)"></rect><rect class="cls-5" x="76.75" y="283.65" width="37.53" height="1.01" transform="translate(-198.37 224.99) rotate(-60.04)"></rect><rect class="cls-5" x="72.22" y="281.78" width="37.53" height="1.01" transform="translate(-205.23 297.09) rotate(-75)"></rect><path class="cls-8" d="M86.13,344.91a44.5,44.5,0,1,1,44.5-44.5A44.55,44.55,0,0,1,86.13,344.91Zm0-81a36.45,36.45,0,1,0,36.45,36.45A36.49,36.49,0,0,0,86.13,264Z"></path><path class="cls-8" d="M95.31,300.4a9.18,9.18,0,1,1-9.18-9.18A9.17,9.17,0,0,1,95.31,300.4Z"></path><path class="cls-4" d="M92.51,300.41A6.38,6.38,0,1,1,86.13,294,6.38,6.38,0,0,1,92.51,300.41Z"></path><line class="cls-9" x1="87.32" y1="291.54" x2="98.01" y2="293.3"></line><path class="cls-8" d="M338.9,312.13a9.18,9.18,0,1,1-9.18-9.18A9.18,9.18,0,0,1,338.9,312.13Z"></path><path class="cls-4" d="M334.47,312.13a4.64,4.64,0,1,1-4.64-4.65A4.64,4.64,0,0,1,334.47,312.13Z"></path><path class="cls-6" d="M292.85,309.47c-2.7-16.85,10.85-33.09,30.21-36.2a38.66,38.66,0,0,1,24.83,4.13l-1.95,3.5a34.6,34.6,0,0,0-22.25-3.67c-17.18,2.75-29.24,16.93-26.89,31.61Z"></path><path class="cls-8" d="M304.16,259.81h0a10.08,10.08,0,0,1-2.17.9l-1.25-2.58,4.23-2.05,1.25,2.59A11.4,11.4,0,0,1,304.16,259.81Z"></path><path class="cls-8" d="M303.83,259h0a5.3,5.3,0,0,1-1.51.59L301.06,257l2.92-1.41,1.26,2.59A5.42,5.42,0,0,1,303.83,259Z"></path><path class="cls-6" d="M330.76,314.55h0a2.62,2.62,0,0,1-3.46-1.31L301.18,259.3l4.57-2.21L331.87,311A2.62,2.62,0,0,1,330.76,314.55Z"></path><path class="cls-5" d="M330.63,311.88a1.1,1.1,0,1,1-1.09-1.09A1.09,1.09,0,0,1,330.63,311.88Z"></path><path class="cls-6" d="M302.86,258.93,296,294.7a16.1,16.1,0,0,1-15.83,13.07H198.37a4.06,4.06,0,0,1-4.06-4.06V247h-.1V219.06h-5.34v24.33a5,5,0,0,1-4.3,4.92l-51.22,7a11.27,11.27,0,0,1-12.33-8l-5.66-19.38-3.44,1L120,257.22,83,300.41l4.94,6.12,97.69,11.73h97.8a18.5,18.5,0,0,0,12.87-5.2l1-.94a18.5,18.5,0,0,0,5.44-10.54L308.55,263Zm-172,39.94-3.64,4a4,4,0,0,1-3.06,1.33c-6.43-.09-27.66-.41-29.38-.87-2.85-.76-5.63-1.78-.72-7.15,4.71-5.16,27.8-33.31,27.8-33.31l9.88,32.06A4.06,4.06,0,0,1,130.88,298.87Zm58,3.59a4.06,4.06,0,0,1-5.12,3.92L139,294.27a4.06,4.06,0,0,1-2.85-2.81l-8.41-29.63,61.14-8ZM85.31,294.75"></path><path class="cls-10" d="M98,293.3l37.93,6.25a8.9,8.9,0,0,1,7.33,10.23l-.06.38A8.9,8.9,0,0,1,133,317.49l-48.62-8A8.9,8.9,0,0,1,77,299.25l.06-.38a8.9,8.9,0,0,1,10.23-7.33"></path><path class="cls-8" d="M150.23,309a10.69,10.69,0,1,1-10.68-10.69A10.68,10.68,0,0,1,150.23,309Z"></path><path class="cls-4" d="M147.11,309a7.56,7.56,0,1,1-7.56-7.56A7.56,7.56,0,0,1,147.11,309Z"></path><path class="cls-11" d="M117.38,310.43h21.35a1.87,1.87,0,0,0,1.87-1.87h0a1.87,1.87,0,0,0-1.87-1.87H117.38a1.87,1.87,0,0,0-1.87,1.87h0A1.87,1.87,0,0,0,117.38,310.43Z"></path><rect class="cls-8" x="104.56" y="306.01" width="15.08" height="4.79" transform="translate(224.2 616.81) rotate(180)"></rect><path class="cls-8" d="M200.89,221.33l-23-3.08a2.27,2.27,0,0,1-2-2.56h0a2.27,2.27,0,0,1,2.55-1.95l23,3.09a2.27,2.27,0,0,1,1.95,2.55h0A2.27,2.27,0,0,1,200.89,221.33Z"></path><rect class="cls-8" x="188.87" y="218.52" width="5.34" height="24.6"></rect><path class="cls-5" d="M87.23,300.41a1.1,1.1,0,1,1-1.1-1.1A1.09,1.09,0,0,1,87.23,300.41Z"></path><circle class="cls-5" cx="88.32" cy="297.51" r="1.09"></circle><path class="cls-5" d="M89.42,303.3a1.1,1.1,0,1,1-1.1-1.09A1.1,1.1,0,0,1,89.42,303.3Z"></path><polygon class="cls-8" points="111.01 226.26 117.89 249.87 121.48 248.56 114.58 225.22 111.01 226.26"></polygon><path class="cls-6" d="M107.42,229.28c-2.87.43-6.55.76-10.92-5.23-3-4.15,4.68-6.27,13-5,9.65,1.49,26.91-.37,22.79,4-3.38,3.63-10,1-15.56,1.75C111.39,225.59,114.25,228.24,107.42,229.28Z"></path><path class="cls-12" d="M176.37,151.49s-10.36,5.9-11.87,14-5.62-15.06-5.62-15.06c.74,0,7.24-4.78,11.23-8.37C173.19,139.25,176.37,151.49,176.37,151.49Z"></path><path class="cls-6" d="M160.21,149.71s-8.16-6.41-27.27,10.14c-20.15,17.43-17.44,29.25-17.44,29.25s17.12.7,28.55,8.29c3.09,2.06-5.23-15,16-21C169.46,173.81,160.21,149.71,160.21,149.71Z"></path><path class="cls-13" d="M182.2,145c-.15,6.47-.54,12.68-3.45,12.23a13.85,13.85,0,0,1-11.13-9c-.23-1.07-3.55-18.06,6.09-16.31C182.89,133.59,182.39,136.73,182.2,145Z"></path><path class="cls-11" d="M183.64,137.22s-1.37,5-13.09,4.95c-4.87,0-2,3-4.81,3.19-4.51.24-4.35-11.55-.2-15.2C170.76,125.56,182.28,126.8,183.64,137.22Z"></path><path class="cls-11" d="M164.77,132.38a4.2,4.2,0,1,1-4.67-3.8A4.26,4.26,0,0,1,164.77,132.38Z"></path><path class="cls-8" d="M186.91,137.3s6.85,1.18,7.44,1.85-14,3-19.55.67C174.8,139.82,175.23,135.1,186.91,137.3Z"></path><path class="cls-6" d="M186.91,137.3c0,3.36-24.73,3.54-25-.53-.46-7.12,5.76-11.9,12.66-11.75S187,130.15,186.91,137.3Z"></path><path class="cls-12" d="M182.21,144.68a35,35,0,0,0,1,5.53c.59,1.55-1.33.76-1.33.76Z"></path><path class="cls-14" d="M181.76,152.47s-1.15,1.32-3-1.5Z"></path><path class="cls-14" d="M180.12,142h-1.37l.92.9h0a6.62,6.62,0,0,0-.06.68c0,.89.18,1.6.44,1.61s.49-.71.51-1.59S180.38,142,180.12,142Z"></path><path class="cls-13" d="M170.55,142.17c-.51,1.9-.16,4.05-1.18,3.77s-2.38-3.34-1.87-5.23,1.47-2.61,2.5-2.33S171.07,140.28,170.55,142.17Z"></path><path class="cls-12" d="M170.14,140.62s-.19-3-1.64-.32a2.74,2.74,0,0,0,.69,3.66"></path><path class="cls-11" d="M160.08,250.64l-15.27-3-26.38,31L108,290.53l6.71,5.89S158.28,258.42,160.08,250.64Z"></path><path class="cls-8" d="M110.31,287.87s-1.61,3.59,7,6.23c3.87,3.62,16.52,18,12.15,17.09-2.49-.53-27.12-15.05-27.12-15.05C104,291.67,106.08,290,110.31,287.87Z"></path><path class="cls-11" d="M160.08,250.64c1.79-7.79-15.21-53-15.21-53S135,192,131.32,190.94c-3.8-1.13-15.78-1.8-15.78-1.8a30.53,30.53,0,0,0,1.94,24c8.08,15.74,26.47,36.73,26.47,36.73Z"></path><path class="cls-13" d="M205.32,216.66c-1.67-1.55-7.58-4.83-7.58-4.83l-34.2-22.69-2.66-28.08a5,5,0,0,0-5-3.54c-2.23.09-4.62.75-5,3.09s-.19,23.77,4.7,32.44c5.9,10.46,29,17.76,34,19.9,1.54,3.75,4.8,1.7,11.49,5.57,4.88,2.83-1.48,2.42-2.07,2.83-2.4,1.66,5.51,1.24,5.51,1.24S208,219.15,205.32,216.66Z"></path><polygon class="cls-15" points="234.04 187.12 234.02 204.87 234.93 203.16 235.84 204.87 236.75 203.16 237.65 204.87 238.56 203.16 239.47 204.87 240.38 203.17 241.29 204.87 241.31 187.13 234.04 187.12"></polygon><rect class="cls-3" x="205.54" y="193.41" width="58.83" height="48.67" transform="translate(16.95 452.45) rotate(-89.93)"></rect><rect class="cls-15" x="229.66" y="169.32" width="10.64" height="48.67" transform="matrix(0, -1, 1, 0, 41.07, 428.42)"></rect><rect class="cls-3" x="210.26" y="187.12" width="50.27" height="10.64" transform="translate(470.56 385.15) rotate(-179.93)"></rect><polygon class="cls-5" points="231.09 187.12 231.07 204.86 231.97 203.16 232.89 204.86 233.79 203.16 234.7 204.87 235.61 203.16 236.52 204.87 237.43 203.16 238.33 204.87 238.35 187.13 231.09 187.12"></polygon><rect class="cls-16" x="251.43" y="212.54" width="35.41" height="34.7" transform="translate(-0.26 0.31) rotate(-0.07)"></rect><rect class="cls-16" x="251.41" y="212.54" width="35.41" height="6.28" transform="translate(-0.24 0.3) rotate(-0.06)"></rect><rect class="cls-16" x="250.54" y="211.83" width="36.58" height="6.27" transform="translate(-0.24 0.31) rotate(-0.07)"></rect><polygon class="cls-15" points="271.96 211.82 271.97 222.29 271.31 221.28 270.65 222.29 269.99 221.28 269.33 222.29 268.67 221.29 268 222.29 267.34 221.29 266.69 222.29 266.67 211.83 271.96 211.82"></polygon><rect class="cls-6" x="253.58" y="212.54" width="35.41" height="34.7" transform="translate(-0.26 0.31) rotate(-0.07)"></rect><rect class="cls-15" x="253.56" y="212.54" width="35.41" height="6.28" transform="translate(-0.24 0.31) rotate(-0.07)"></rect><rect class="cls-6" x="252.69" y="211.82" width="36.58" height="6.27" transform="translate(-0.24 0.31) rotate(-0.07)"></rect><polygon class="cls-7" points="274.11 211.82 274.12 222.29 273.46 221.28 272.8 222.29 272.14 221.28 271.48 222.29 270.82 221.28 270.15 222.29 269.49 221.29 268.83 222.29 268.82 211.83 274.11 211.82"></polygon><rect class="cls-11" x="219.35" y="239.36" width="58.83" height="77.18" transform="translate(-29.47 526.41) rotate(-89.93)"></rect><rect class="cls-8" x="243.47" y="215.27" width="10.64" height="77.18" transform="translate(-5.35 502.37) rotate(-89.94)"></rect><rect class="cls-11" x="209.57" y="247.34" width="79.73" height="10.64" transform="translate(498.59 505.59) rotate(-179.93)"></rect><polygon class="cls-17" points="245.94 247.31 245.93 265.06 247.29 263.35 248.67 265.06 250.04 263.36 251.4 265.06 252.77 263.36 254.14 265.07 255.51 263.36 256.88 265.07 256.9 247.33 245.94 247.31"></polygon><line class="cls-18" x1="228.23" y1="186.43" x2="228.23" y2="318.53"></line><line class="cls-18" x1="239.81" y1="186.43" x2="239.81" y2="318.53"></line><line class="cls-18" x1="265.7" y1="211.4" x2="265.7" y2="318.53"></line><line class="cls-18" x1="277.29" y1="211.4" x2="277.29" y2="318.53"></line></svg> 