<?xml version="1.0" encoding="UTF-8"?>
<svg width="531px" height="464px" viewBox="0 0 531 464" version="1.1" xmlns="http://www.w3.org/2000/svg" xmlns:xlink="http://www.w3.org/1999/xlink">
    <!-- Generator: Sketch 56.2 (81672) - https://sketch.com -->
    <title>Untitled</title>
    <desc>Created with Sketch.</desc>
    <g id="Page-1" stroke="none" stroke-width="1" fill="none" fill-rule="evenodd">
        <g id="remorque" transform="translate(80.000000, 161.000000)">
            <path d="M404.55907,302.35 L3.33364158,302.35 C1.74219793,302.344848 0.46,301.896536 0.46,301.345305 L0.46,301.345305 C0.474707336,300.797737 1.75270521,300.355094 3.33364158,300.35 L404.55907,300.35 C406.150584,300.349976 407.444948,300.794098 407.46,301.345305 L407.46,301.345305 C407.476772,301.877346 406.282582,302.319915 404.748839,302.35 L404.55907,302.35 Z" id="Path" fill="#EAF7EF" fill-rule="nonzero"></path>
            <path d="M394.31,302.48 L341.17,302.48 C340.887129,302.48 340.615988,302.366963 340.416909,302.166006 C340.21783,301.965049 340.107331,301.692858 340.109953,301.41 L340.109953,301.41 C340.109953,300.824578 340.584578,300.35 341.17,300.35 L394.31,300.35 L394.31,302.48 Z" id="Path" fill="#EAF7EF" fill-rule="nonzero"></path>
            <path d="M307,221.74 C297.64,204.74 293.8,196.94 304.25,195.45 L305.42,195.29 L308.93,200.36 L310.82,219.68 C311.72,224.4 308.33,224.11 307,221.74 Z" id="Path" fill="#2F2E41" fill-rule="nonzero"></path>
            <path d="M322.69,114.87 C322.69,114.87 351.28,141.53 362.33,157.15 C363.604478,158.954761 364.109764,161.191912 363.734685,163.369244 C363.359606,165.546575 362.134892,167.485708 360.33,168.76 L359.89,169.05 L309,200.5 L305.49,195.29 C324.97,177.66 335.19,164.93 351.42,160.36 C351.42,160.36 322.92,147.24 318.36,133.89 L322.69,114.87 Z" id="Path" fill="#3F3D56" fill-rule="nonzero"></path>
            <path d="M338.24,243.92 C338.117984,247.187135 338.271863,250.458741 338.7,253.7 L338.7,254 C339.787556,261.796176 342.514053,269.273593 346.7,275.94 C346.95,276.34 347.22,276.74 347.48,277.11 C351.752249,283.610879 357.330482,289.151651 363.86,293.38 C364.32,293.67 364.73,293.94 365.14,294.18 C372.549535,298.727862 380.925252,301.468383 389.59,302.18 C390.07,302.18 390.59,302.26 391.06,302.29 L392.23,302.35 C403.291219,302.839279 414.248339,300.030385 423.71,294.28 C424.12,294.05 424.53,293.78 424.95,293.51 C429.875145,290.347359 434.27787,286.4372 438,281.92 C438.130824,281.778989 438.251145,281.628587 438.36,281.47 C438.77,280.97 439.22,280.39 439.68,279.76 L440.1,279.19 L440.16,279.19 L441.04,277.83 L441.68,276.92 L441.68,276.92 L441.68,276.86 L441.76,276.75 C442.27,275.94 442.67,275.32 443.03,274.75 C443.39,274.18 443.79,273.43 444.2,272.65 C448.070556,265.387233 450.290036,257.359546 450.7,249.14 L450.7,247.66 C451.044613,234.658639 446.878835,221.938707 438.91,211.66 C438.61,211.27 438.31,210.88 437.99,210.49 C430.172937,200.95054 419.445881,194.234715 407.45,191.37 L406,191 C403.036155,190.369718 400.026482,189.978461 397,189.83 L396.72,189.83 C365.645454,188.646965 339.480565,212.847697 338.24,243.92 Z M374.38,198.56 L392.38,245.63 L350.32,219.32 C355.968242,210.074075 364.357016,202.817785 374.32,198.56 L374.38,198.56 Z M391.53,246.72 L342.86,248.6 C342.79,247.1 342.79,245.6 342.86,244.1 C343.178799,235.804518 345.512688,227.711415 349.66,220.52 L391.53,246.72 Z M405.12,195.56 L393.65,245 L375.65,198.09 C382.307872,195.481597 389.435439,194.28629 396.58,194.58 L396.9,194.58 C399.635508,194.697553 402.35738,195.031935 405.04,195.58 L405.12,195.56 Z M434.51,213.42 L395,245.51 L406.51,195.87 C417.508191,198.508263 427.341522,204.671654 434.51,213.42 L434.51,213.42 Z M446.22,247.53 L446.22,247.53 L395.73,246.63 L435.39,214.49 C442.670274,223.921906 446.467882,235.579679 446.14,247.49 L446.22,247.53 Z M440.08,270.45 C439.71,271.16 439.34,271.79 439,272.36 C438.66,272.93 438.23,273.63 437.83,274.23 L437.75,274.35 L437.38,274.93 L437.25,275.1 L437.25,275.1 L396.09,248 L446.04,248.87 C445.662415,256.413765 443.627523,263.781714 440.08,270.45 Z M422.35,289.69 L422.35,289.69 L396.14,249.69 L436.45,276.23 L435.6,277.4 C435.29,277.81 434.99,278.2 434.69,278.57 L434.42,278.9 C431.002949,283.08798 426.954422,286.718159 422.42,289.66 L422.35,289.69 Z M391.26,297.79 L394.26,249.48 L421.19,290.48 C412.187123,295.910741 401.743854,298.470981 391.25,297.82 L391.26,297.79 Z M367.51,290.31 L392.89,250 L389.89,297.69 C381.95616,297.010877 374.291568,294.483411 367.51,290.31 L367.51,290.31 Z M351.31,274.69 L391.54,249.48 L366.34,289.57 C360.358695,285.698031 355.241766,280.632169 351.31,274.69 L351.31,274.69 Z M343.22,253.22 C343.07,252.15 342.97,251.07 342.89,249.99 L391.16,248.11 L350.56,273.51 C346.746723,267.430234 344.256051,260.615807 343.25,253.51 L343.25,253.41 L343.22,253.22 Z" id="Shape" fill="#2F2E41" fill-rule="nonzero"></path>
            <path d="M176.569999,246.18 C176.569999,249.45141 176.85044,252.7168 177.41,255.94 L177.41,256.04 L177.47,256.25 C178.85097,263.997258 181.868054,271.360989 186.32,277.85 C186.58,278.25 186.86,278.65 187.14,279.02 C191.687199,285.342411 197.491922,290.656882 204.19,294.63 C204.66,294.91 205.069999,295.15 205.5,295.37 C213.087562,299.619078 221.570843,302.017421 230.26,302.370052 L232.88,302.370052 C243.950545,302.38506 254.778164,299.124945 264,293 C264.39,292.75 264.79,292.47 265.17,292.17 C269.971238,288.804705 274.215973,284.708435 277.75,280.03 L278.1,279.57 C278.49,279.05 278.91,278.45 279.34,277.81 L279.75,277.21 L279.81,277.21 L280.63,275.82 L281.24,274.82 L281.24,274.82 L281.24,274.76 L281.31,274.65 C281.8,273.83 282.16,273.18 282.48,272.56 C282.8,271.94 283.19,271.22 283.58,270.42 C287.149,263.006453 289.040514,254.897522 289.12,246.67 L289.12,245.18 C288.919542,232.186669 284.239194,219.660998 275.87,209.72 C275.55,209.34 275.23,208.97 274.87,208.6 C266.659985,199.492249 255.701875,193.312731 243.66,191 L242.25,190.73 C239.275805,190.230013 236.265903,189.972499 233.25,189.96 L232.93,189.96 C201.860097,189.965402 176.652676,215.110206 176.569999,246.18 Z M210.85,199.41 L230.75,245.72 L187.67,221.14 C192.943555,211.658197 201.047767,204.060936 210.85,199.41 L210.85,199.41 Z M229.91,246.83 L181.39,250.65 C181.25,249.15 181.19,247.65 181.19,246.15 C181.19,237.846805 183.200863,229.667118 187.05,222.31 L229.91,246.83 Z M241.44,195.18 L232,245 L212.16,198.85 C218.706339,195.959676 225.783987,194.467852 232.94,194.469998 L233.26,194.469998 C236.001227,194.488371 238.736602,194.725793 241.44,195.18 L241.44,195.18 Z M271.52,211.84 L233.27,245.49 L242.79,195.43 C253.900727,197.618513 263.99051,203.381595 271.52,211.84 L271.52,211.84 Z M284.52,245.46 L284.52,245.46 L234.05,246.63 L272.38,212.92 C280.06725,222.037514 284.360437,233.535482 284.53,245.46 L284.52,245.46 Z M279.44,268.59 C279.09,269.32 278.76,269.96 278.44,270.59 C278.12,271.22 277.72,271.87 277.34,272.51 L277.34,272.62 L276.98,273.21 L276.86,273.4 L276.86,273.4 L234.69,248 L284.63,246.83 C284.541626,254.386354 282.786549,261.830069 279.49,268.63 L279.44,268.59 Z M262.44,288.49 L262.44,288.49 L234.65,249.62 L276,274.5 L275.19,275.73 C274.91,276.14 274.62,276.54 274.32,276.9 C274.245665,277.019682 274.162076,277.133363 274.07,277.24 C270.81335,281.586554 266.895854,285.396074 262.46,288.53 L262.44,288.49 Z M231.7,297.86 L232.81,249.48 L261.28,289.28 C252.52933,295.082431 242.217559,298.078984 231.72,297.87 L231.7,297.86 Z M207.62,291.35 L231.44,250 L230.44,297.77 C222.479954,297.421156 214.712368,295.212121 207.76,291.32 L207.62,291.35 Z M190.82,276.35 L230.01,249.58 L206.43,290.58 C200.341154,286.964738 195.058889,282.138544 190.91,276.4 L190.82,276.35 Z M181.82,255.28 C181.64,254.22 181.5,253.14 181.37,252.06 L229.52,248.25 L189.97,275.18 C185.971165,269.265297 183.256154,262.578262 182,255.55 L182,255.46 L181.82,255.28 Z" id="Shape" fill="#2F2E41" fill-rule="nonzero"></path>
            <path d="M233.34,247 C232.690718,247.95044 232.932139,249.246959 233.88,249.9 L234.02,249.99 L234.02,249.99 C234.35404,250.180631 234.735961,250.270903 235.12,250.25 L314.72,247.03 L368.56,187.68 L391.73,249.13 L396.14,247.31 L363.42,159.31 L382.62,157.74 L382.62,157.74 C382.627997,156.708424 382.223799,155.71635 381.497165,154.984083 C380.77053,154.251816 379.781607,153.839969 378.75,153.84 C378.560294,153.82506 378.369706,153.82506 378.18,153.84 L362.24,156.09 L360.95,156.3 C360.681428,155.561939 359.939784,155.10618 359.16,155.2 L358.59,155.2 C357.651258,155.299672 356.970874,156.1412 357.07,157.08 C357.080505,157.238433 357.117694,157.393954 357.18,157.54 L358.59,161.28 L296.59,157.84 L291,145.3 L288.37,146.47 L294.04,159.47 L233.34,247 Z M328.87,227.1 L298.62,162.1 L360.18,165.5 L367.43,184.74 L328.87,227.1 Z M235.87,247.95 L295.25,163.16 L326.68,229.5 L313.23,244.3 L235.87,247.95 Z" id="Shape" fill="#FC5F49" fill-rule="nonzero"></path>
            <path d="M233.34,247 C232.690718,247.95044 232.932139,249.246959 233.88,249.9 L234.02,249.99 L234.02,249.99 C234.35404,250.180631 234.735961,250.270903 235.12,250.25 L314.72,247.03 L368.56,187.68 L391.73,249.13 L396.14,247.31 L363.42,159.31 L382.62,157.74 L382.62,157.74 C382.627997,156.708424 382.223799,155.71635 381.497165,154.984083 C380.77053,154.251816 379.781607,153.839969 378.75,153.84 C378.560294,153.82506 378.369706,153.82506 378.18,153.84 L362.24,156.09 L360.95,156.3 C360.681428,155.561939 359.939784,155.10618 359.16,155.2 L358.59,155.2 C357.651258,155.299672 356.970874,156.1412 357.07,157.08 C357.080505,157.238433 357.117694,157.393954 357.18,157.54 L358.59,161.28 L296.59,157.84 L291,145.3 L288.37,146.47 L294.04,159.47 L233.34,247 Z M328.87,227.1 L298.62,162.1 L360.18,165.5 L367.43,184.74 L328.87,227.1 Z M235.87,247.95 L295.25,163.16 L326.68,229.5 L313.23,244.3 L235.87,247.95 Z" id="Shape" fill="#30AC67" fill-rule="nonzero"></path>
            <path d="M375.4,178 L375.4,178 C375.604716,178.583718 376.068011,179.039861 376.654843,179.235472 C377.241675,179.431082 377.885996,179.344145 378.4,179 C385.034095,174.459139 389.366243,167.258357 390.27,159.27 L383.39,158.84 C384.56,165.84 381.88,171.43 376.05,175.84 C375.409247,176.357479 375.151244,177.214845 375.4,178 Z" id="Path" fill="#2F2E41" fill-rule="nonzero"></path>
            <path d="M371.6,170.26 L371.6,170.26 C371.856249,171.0044 372.659671,171.408331 373.41,171.17 C373.545493,171.121652 373.673436,171.054313 373.79,170.97 C378.576594,167.659095 381.683508,162.427358 382.3,156.64 L377.3,156.36 C378.2,161.43 376.3,165.47 372.05,168.69 C371.58903,169.069439 371.410021,169.693983 371.6,170.26 L371.6,170.26 Z" id="Path" fill="#2F2E41" fill-rule="nonzero"></path>
            <path d="M378.89,153.87 L390.3,159.21 L390.3,159.21 C389.967968,161.473887 388.047678,163.165772 385.76,163.21 L383.58,163.21 L377.58,159.14 L377.58,154.9 L378.89,153.87 Z" id="Path" fill="#FC5F49" fill-rule="nonzero"></path>
            <path d="M282.06,142.28 L305.56,142.28 C306.307177,142.260107 306.994431,142.687052 307.307653,143.365699 C307.620874,144.044346 307.499892,144.844322 307,145.4 C306.166739,146.240532 305.033553,146.715391 303.85,146.72 L299.85,146.72 C296.624088,146.724474 293.479211,147.730835 290.85,149.6 L289.68,150.38 C288.662459,151.130006 287.434036,151.539481 286.17,151.55 L285,151.55 C282.849651,151.53802 280.900488,150.282759 280,148.33 L279.26,146.46 C278.933401,145.707401 278.929268,144.853882 279.248562,144.098155 C279.567857,143.342428 280.182719,142.750435 280.95,142.46 C281.304712,142.328152 281.6818,142.267003 282.06,142.28 L282.06,142.28 Z" id="Path" fill="#2F2E41" fill-rule="nonzero"></path>
            <path d="M389.07,247.35 C389.07,249.818713 391.071287,251.82 393.54,251.82 C396.008713,251.82 398.01,249.818713 398.01,247.35 C398.01,244.881287 396.008713,242.88 393.54,242.88 C392.354482,242.88 391.21752,243.350945 390.379233,244.189233 C389.540945,245.02752 389.07,246.164482 389.07,247.35 L389.07,247.35 Z" id="Path" fill="#F2F2F2" fill-rule="nonzero"></path>
            <polygon id="Path" fill="#30AC67" fill-rule="nonzero" points="234.23 239.97 302.1 233.48 302.92 230.61 233.97 237.21"></polygon>
            <rect id="Rectangle" fill="#30AC67" fill-rule="nonzero" transform="translate(268.685215, 260.987302) rotate(-87.590000) translate(-268.685215, -260.987302) " x="267.300215" y="224.202302" width="2.77" height="73.57"></rect>
            <path d="M222.24,243.91 C222.264818,250.224827 227.397548,255.327387 233.712412,255.315 C240.027275,255.302569 245.139912,250.179875 245.139912,243.865 C245.139912,237.550125 240.027275,232.427431 233.712412,232.415 C227.397548,232.402613 222.264818,237.505173 222.24,243.82 L222.24,243.91 Z" id="Path" fill="#F2F2F2" fill-rule="nonzero"></path>
            <path d="M228.29999,248.92 C228.30552,251.586227 230.470423,253.743674 233.136653,253.74 C235.802883,253.736317 237.961825,251.572905 237.95999,248.906674 C237.958152,246.240442 235.796232,244.08 233.13,244.08 C231.84727,244.08 230.617223,244.590243 229.711134,245.498208 C228.805045,246.406173 228.297344,247.637273 228.29999,248.92 Z" id="Path" fill="#30AC67" fill-rule="nonzero"></path>
            <path d="M295.85,246.88 C295.854709,251.084979 297.539647,255.113708 300.53,258.07 C301.002394,258.544185 301.506924,258.985231 302.04,259.39 C307.719958,263.760332 315.630042,263.760332 321.31,259.39 C321.843201,258.981774 322.347722,258.537394 322.82,258.06 L322.82,258.06 C328.768243,252.078912 328.964931,242.47875 323.266658,236.259049 C317.568384,230.039347 307.987727,229.396847 301.51,234.8 C297.963244,237.817206 295.898588,242.223752 295.85,246.88 L295.85,246.88 Z M319.26,235.69 L319.26,235.91 C319.123219,237.3679 318.57143,238.756048 317.67,239.91 C317.29165,240.3917 316.858764,240.827941 316.38,241.21 L316.38,241.21 C313.607217,243.379321 309.712783,243.379321 306.94,241.21 L306.94,241.21 C306.462224,240.83392 306.032351,240.400689 305.66,239.92 C304.714267,238.716974 304.153187,237.256773 304.05,235.73 C308.448412,232.029136 314.871588,232.029136 319.27,235.73 L319.26,235.69 Z M311.32,244.8 C312.656529,244.8 313.74,245.883471 313.74,247.22 C313.74,248.556529 312.656529,249.64 311.32,249.64 C309.983471,249.64 308.9,248.556529 308.9,247.22 C308.9,246.578176 309.154964,245.96264 309.608802,245.508802 C310.06264,245.054964 310.678176,244.8 311.32,244.8 Z M318.82,252.73 L318.82,252.73 C316.681535,249.976429 316.681535,246.123571 318.82,243.37 L318.82,243.37 C319.195906,242.88911 319.62911,242.455906 320.11,242.08 C321.236782,241.190969 322.592547,240.639647 324.02,240.49 C327.100274,245.182296 326.452311,251.39438 322.47,255.35 C321.616681,255.080873 320.820108,254.657164 320.12,254.1 L320.12,254.1 C319.620417,253.697133 319.176538,253.229715 318.8,252.71 L318.82,252.73 Z M304.43,258.58 C305.802488,254.584273 310.154225,252.457652 314.15,253.83 C314.943882,254.098183 315.687432,254.496996 316.35,255.01 L316.35,255.01 C316.831851,255.391936 317.268064,255.828149 317.65,256.31 L317.65,256.31 C318.18448,256.98492 318.600398,257.745747 318.88,258.56 C314.611042,261.841387 308.668958,261.841387 304.4,258.56 L304.43,258.58 Z M297.67,247 C297.660592,244.701559 298.328379,242.451258 299.59,240.53 C301.023265,240.668413 302.385292,241.220868 303.51,242.12 C303.990089,242.493478 304.420269,242.927019 304.79,243.41 L304.79,243.41 C306.952488,246.177679 306.952488,250.062321 304.79,252.83 C304.416926,253.316334 303.983439,253.753181 303.5,254.13 C302.79915,254.682794 302.007296,255.109177 301.16,255.39 C298.900378,253.157261 297.638269,250.106562 297.66,246.93 L297.67,247 Z" id="Shape" fill="#FFC47E" fill-rule="nonzero"></path>
            <path d="M295.85,246.88 C295.854709,251.084979 297.539647,255.113708 300.53,258.07 C301.002394,258.544185 301.506924,258.985231 302.04,259.39 C307.719958,263.760332 315.630042,263.760332 321.31,259.39 C321.843201,258.981774 322.347722,258.537394 322.82,258.06 L322.82,258.06 C328.768243,252.078912 328.964931,242.47875 323.266658,236.259049 C317.568384,230.039347 307.987727,229.396847 301.51,234.8 C297.963244,237.817206 295.898588,242.223752 295.85,246.88 L295.85,246.88 Z M319.26,235.69 L319.26,235.91 C319.123219,237.3679 318.57143,238.756048 317.67,239.91 C317.29165,240.3917 316.858764,240.827941 316.38,241.21 L316.38,241.21 C313.607217,243.379321 309.712783,243.379321 306.94,241.21 L306.94,241.21 C306.462224,240.83392 306.032351,240.400689 305.66,239.92 C304.714267,238.716974 304.153187,237.256773 304.05,235.73 C308.448412,232.029136 314.871588,232.029136 319.27,235.73 L319.26,235.69 Z M311.32,244.8 C312.656529,244.8 313.74,245.883471 313.74,247.22 C313.74,248.556529 312.656529,249.64 311.32,249.64 C309.983471,249.64 308.9,248.556529 308.9,247.22 C308.9,246.578176 309.154964,245.96264 309.608802,245.508802 C310.06264,245.054964 310.678176,244.8 311.32,244.8 Z M318.82,252.73 L318.82,252.73 C316.681535,249.976429 316.681535,246.123571 318.82,243.37 L318.82,243.37 C319.195906,242.88911 319.62911,242.455906 320.11,242.08 C321.236782,241.190969 322.592547,240.639647 324.02,240.49 C327.100274,245.182296 326.452311,251.39438 322.47,255.35 C321.616681,255.080873 320.820108,254.657164 320.12,254.1 L320.12,254.1 C319.620417,253.697133 319.176538,253.229715 318.8,252.71 L318.82,252.73 Z M304.43,258.58 C305.802488,254.584273 310.154225,252.457652 314.15,253.83 C314.943882,254.098183 315.687432,254.496996 316.35,255.01 L316.35,255.01 C316.831851,255.391936 317.268064,255.828149 317.65,256.31 L317.65,256.31 C318.18448,256.98492 318.600398,257.745747 318.88,258.56 C314.611042,261.841387 308.668958,261.841387 304.4,258.56 L304.43,258.58 Z M297.67,247 C297.660592,244.701559 298.328379,242.451258 299.59,240.53 C301.023265,240.668413 302.385292,241.220868 303.51,242.12 C303.990089,242.493478 304.420269,242.927019 304.79,243.41 L304.79,243.41 C306.952488,246.177679 306.952488,250.062321 304.79,252.83 C304.416926,253.316334 303.983439,253.753181 303.5,254.13 C302.79915,254.682794 302.007296,255.109177 301.16,255.39 C298.900378,253.157261 297.638269,250.106562 297.66,246.93 L297.67,247 Z" id="Shape" fill="#30AC67" fill-rule="nonzero"></path>
            <path d="M292.999847,246.88 C292.982696,251.138473 294.43825,255.271963 297.12,258.58 C298.347229,260.144167 299.823646,261.495578 301.49,262.58 C309.224119,267.58697 319.456611,266.188562 325.56368,259.290008 C331.670748,252.391454 331.81799,242.064897 325.910091,234.995027 C320.002192,227.925157 309.81373,226.235576 301.94,231.02 C298.950591,232.837509 296.526641,235.451912 294.94,238.57 C293.653182,241.150465 292.988765,243.9965 292.999847,246.88 Z M295.87,246.88 C295.871361,243.816378 296.76056,240.818804 298.43,238.25 C299.272152,236.930145 300.310772,235.746523 301.51,234.74 C307.999132,229.467863 317.473147,230.167998 323.11679,236.336754 C328.760433,242.505511 328.617144,252.00428 322.79,258 L322.79,258 C322.322577,258.482512 321.817665,258.927237 321.28,259.33 C315.603204,263.698692 307.696796,263.698692 302.02,259.33 C301.482472,258.930723 300.977547,258.489332 300.51,258.01 C297.53985,255.066326 295.863171,251.061726 295.85,246.88 L295.87,246.88 Z" id="Shape" fill="#F2F2F2" fill-rule="nonzero"></path>
            <path d="M304.47,265.87 L308.88,265.87 L308.88,247.59 C308.874495,246.373358 307.886655,245.39 306.67,245.39 L306.67,245.39 C305.457249,245.395475 304.475475,246.377249 304.47,247.59 L304.47,247.59 L304.47,265.87 Z" id="Path" fill="#3F3D56" fill-rule="nonzero"></path>
            <path d="M300.54,265.37 L309.54,268.29 C310.254705,268.513245 311.01625,268.121339 311.25,267.41 L311.25,267.41 C311.363391,267.070565 311.336293,266.699877 311.174747,266.38054 C311.0132,266.061203 310.730628,265.819755 310.39,265.71 L310.39,265.71 L301.39,262.79 C300.672701,262.566136 299.908132,262.957311 299.67,263.67 L299.67,263.67 C299.446477,264.379219 299.834012,265.136472 300.54,265.37 L300.54,265.37 Z" id="Path" fill="#3F3D56" fill-rule="nonzero"></path>
            <path d="M372.83,20.89 C374.57,22.63 370.83,29.18 364.46,35.53 C358.09,41.88 351.59,45.63 349.83,43.9 C348.07,42.17 351.83,35.61 358.19,29.26 C364.55,22.91 371.1,19.16 372.83,20.89 Z" id="Path" fill="#2F2E41" fill-rule="nonzero"></path>
            <polygon id="Path" fill="#F9A19E" fill-rule="nonzero" points="363.02 48.71 369.45 54.49 373.95 49.49 379.19 43.65 372.76 37.87 370.29 40.63"></polygon>
            <path d="M389.23,18.75 C389.717199,20.7996532 389.991982,22.8940383 390.05,25 C390.024238,25.950351 390.385082,26.8705037 391.05,27.55 L394.42,30.82 C394.791575,31.1571939 394.855737,31.7175414 394.57,32.13 C394.108402,32.89428 393.404367,33.4821494 392.57,33.8 C392.32083,37.1158049 391.292997,40.3260712 389.57,43.17 C388.691644,44.4499615 387.369697,45.3585779 385.86,45.72 C369.7,49.72 362.08,42.62 360.43,26.44 C360.086615,22.8961409 361.093759,19.3532796 363.25,16.52 C366.66,12.06 373.56,5.24 381.92,9.21 C385.709828,11.0775342 388.412616,14.6048385 389.23,18.75 Z" id="Path" fill="#F9A19E" fill-rule="nonzero"></path>
            <path d="M383.81,26 C383.935035,25.9893247 384.048746,25.9232988 384.12,25.82 C384.830031,24.6302893 386.369743,24.2408853 387.56,24.95 C387.731208,25.0908326 387.984167,25.0662082 388.125,24.895 C388.265833,24.7237917 388.241208,24.4708326 388.07,24.33 L387.98,24.33 C387.244178,23.8745668 386.35747,23.7303793 385.515259,23.9292088 C384.673047,24.1280382 383.944446,24.6535681 383.49,25.39 L383.49,25.39 C383.372835,25.5655545 383.412232,25.8019343 383.58,25.93 L383.58,25.93 C383.648208,25.9752464 383.72815,25.9995767 383.81,26 Z" id="Path" fill="#30AC67" fill-rule="nonzero"></path>
            <path d="M390.18,35.91 C390.090789,35.8269624 389.971712,35.7836615 389.85,35.79 C389.185888,35.9338174 388.491843,35.8022308 387.926461,35.425309 C387.361078,35.0483873 386.972673,34.4583405 386.85,33.79 L386.85,33.79 C386.838074,33.6899671 386.784779,33.5995078 386.70306,33.5405941 C386.621341,33.4816804 386.518675,33.459703 386.42,33.48 L386.42,33.48 C386.317836,33.4971276 386.226683,33.5541968 386.16665,33.638618 C386.106617,33.7230391 386.082637,33.8278755 386.1,33.93 L386.1,33.93 C386.249447,34.8070761 386.749828,35.5853899 387.485734,36.0854287 C388.221641,36.5854676 389.129528,36.7640546 390,36.58 L390,36.58 C390.217794,36.5490149 390.369691,36.347974 390.34,36.13 C390.308997,36.042772 390.253432,35.9663701 390.18,35.91 L390.18,35.91 Z" id="Path" fill="#2F2E41" fill-rule="nonzero"></path>
            <path d="M394.11,16 C394.11,16 396.3,20.91 391.23,21.71 L391.13,18.48 C388.792737,21.6341206 385.053345,23.4365076 381.13,23.3 L381.62,20.7 C378.49,24.12 380,33.5 380,33.5 C380,33.5 377.82,28.82 375.55,26.82 C374.317066,25.7745014 372.477446,25.8938998 371.39,27.09 C371.038799,27.4890663 370.803623,27.9767116 370.71,28.5 C370.388273,30.3674665 370.908,32.2816718 372.13,33.73 C372.945881,34.8896537 374.34871,35.4864376 375.75,35.27 L375.82,35.27 C376.220051,37.3274001 376.220051,39.4425999 375.82,41.5 C375.2,44.09 372.88,45.5 369.82,45.22 C367.467434,44.9700347 365.309866,43.7977563 363.82,41.96 C359.929983,37.3044345 357.72127,31.4744201 357.55,25.41 C357.039896,18.1091792 360.881701,11.1939305 367.35,7.77 C372.47,4.87 381.16,5.43 387.57,8.49 C388.846008,9.10665182 390.187948,9.57633062 391.57,9.89 C394.57,10.55 400.07,12.89 396.42,20.89 C396.37,20.94 394,15.57 394.11,16 Z" id="Path" fill="#30AC67" fill-rule="nonzero"></path>
            <path d="M388.2,8.83 C379.314937,18.2657449 369.745614,27.0328896 359.57,35.06 C359.57,35.06 347.57,20.85 356.06,9.12 C358.148935,6.29484104 360.985528,4.10938289 364.25,2.81 C370.05,0.48 380.2,-1.48 388.2,8.83 Z" id="Path" fill="#3F3D56" fill-rule="nonzero"></path>
            <path d="M387.9,28.37 C388.02622,28.9992819 387.62193,29.6127742 386.993881,29.7449955 C386.365833,29.8772168 385.748509,29.4788021 385.610298,28.8520447 C385.472087,28.2252873 385.864591,27.604188 386.49,27.46 C386.798033,27.3889831 387.121694,27.4456315 387.387295,27.6170479 C387.652897,27.7884643 387.837833,28.0600599 387.9,28.37 L387.9,28.37 Z" id="Path" fill="#2F2E41" fill-rule="nonzero"></path>
            <path d="M304.3,174.77 L306.51,130.37 L303.91,125.69 C299.781707,118.169468 301.149715,108.822094 307.26,102.8 L311.82,98.3 L331.82,105.76 L324.82,129.45 C324.97,150.61 323.99,169.67 317.88,179.16 C315.850817,182.15608 314.135125,185.352895 312.76,188.7 C305.190816,208.428408 300.44074,229.125407 298.65,250.18 L289.49,250 C286.4,219.56 289.47,194.18 304.3,174.77 Z" id="Path" fill="#3F3D56" fill-rule="nonzero"></path>
            <path d="M371.000014,58.68 C370.91321,60.3825282 370.685768,62.0749628 370.32,63.74 C369.91,65.74 369.37,67.95 368.81,70.1 C368.289215,72.0091041 367.620526,73.8747459 366.81,75.68 C364.516178,80.8756827 361.101237,85.4995126 356.81,89.22 L355.81,90.11 C354.64,91.11 343.69,101.42 343.69,101.42 L334.17,125.9 C334.17,125.9 311.3,123.06 304.17,106.9 C303.646072,105.727576 303.221254,104.513332 302.9,103.27 C304.401169,100.687069 306.103079,98.2261541 307.99,95.91 C311.22,91.91 315.7,87.72 323.4,81.7 C323.4,81.7 340.01,54.64 344.94,50.82 C349.87,47 358.54,45 360.78,45 C361.999231,45.0032723 363.216667,44.9062788 364.42,44.71 C365.59,44.52 366.59,44.32 366.59,44.32 C368.692323,48.0671294 370.127028,52.151301 370.83,56.39 C370.944214,57.1479676 371.001042,57.9134763 371.000014,58.68 Z" id="Path" fill="#FFFFFF" fill-rule="nonzero"></path>
            <path d="M311.24,265.72 C292.45,260.72 284.17,258.2 290.29,249.61 C290.291369,249.568536 290.314059,249.530721 290.35,249.51 L297.05,249.62 L312.34,261.56 C316.43,264.13 313.86,266.4 311.24,265.72 Z" id="Path" fill="#2F2E41" fill-rule="nonzero"></path>
            <path d="M381.8,162.59 C381.955407,162.899527 382.027768,163.244106 382.01,163.59 C382.453247,165.952894 384.6147,167.595598 387.01,167.39 C391.46,167.02 395.62,160.39 392.1,156.75 C390.51,155.08 388.16,154.41 385.92,153.87 C382.514924,152.921382 379.050645,152.199796 375.55,151.71 C374.058396,151.371824 372.493684,151.630216 371.19,152.43 C370.760969,152.729925 370.500892,153.216642 370.49,153.74 C370.51991,154.10248 370.651638,154.449131 370.87,154.74 C373.105322,158.341683 376.626643,160.958542 380.72,162.06 C381.1306,162.10597 381.512421,162.293345 381.8,162.59 L381.8,162.59 Z" id="Path" fill="#F9A19E" fill-rule="nonzero"></path>
            <path d="M347.69,107.29 C347.44,123.02 370.75,154.11 370.75,154.11 L375.75,152.53 C370.81,137.64 363.91,119.35 361.31,111.53 C361.31,111.53 361.78,100.82 362.82,88.58 L348,86.51 L347.69,107.29 Z" id="Path" fill="#F9A19E" fill-rule="nonzero"></path>
            <path d="M339.74,82.42 C339.528058,83.0047486 339.557636,83.6498164 339.822199,84.2127166 C340.086762,84.7756167 340.564541,85.2100299 341.15,85.42 C341.295876,85.4718496 341.446654,85.5087064 341.6,85.53 L347.98,86.43 L362.83,88.53 L363.07,88.53 L367.88,61.13 C368.81,52.77 365.2,50.52 364.79,50.29 L364.79,50.29 C363.154183,48.6515805 360.902621,47.780008 358.59,47.89 C355.022514,48.0876224 351.861451,50.254107 350.39,53.51 L350.39,53.51 C350.177595,54.0171649 350.000506,54.5384076 349.86,55.07 L349.86,55.07 L339.74,82.42 Z" id="Path" fill="#FFFFFF" fill-rule="nonzero"></path>
            <rect id="Rectangle" stroke="#979797" fill="#FFE5C3" transform="translate(299.000000, 65.500000) rotate(39.000000) translate(-299.000000, -65.500000) " x="273.5" y="38.5" width="51" height="54"></rect>
            <rect id="Rectangle-Copy" stroke="#979797" fill="#8887A6" transform="translate(320.000000, 39.000000) rotate(39.000000) translate(-320.000000, -39.000000) " x="294.5" y="33.5" width="51" height="11"></rect>
            <path d="M284.53,88.53 C305.582668,89.5063271 326.635336,88.8329937 347.688003,86.51" id="Path-2" stroke="#3F3D56"></path>
            <path d="M313.74,44.32 C340.996347,47.4385397 356.858517,49.8297979 361.326509,51.4937746 C368.028497,53.9897397 371.752681,58.3806218 370.611033,65.5 C369.849934,70.2462521 368.122277,74.9365916 365.428062,79.5710184" id="Path-3" stroke="#3F3D56"></path>
        </g>
        <text id="J’ARRIVE…" font-family="Impact" font-size="60" font-style="condensed" font-weight="700" fill="#B7FFD7">
            <tspan x="64" y="222">J’ARRIVE…</tspan>
        </text>
        <text id="Humm!!" font-family="Helvetica" font-size="60" font-weight="normal" fill="#B7FFD7">
            <tspan x="64" y="141">Humm!!</tspan>
        </text>
    </g>
</svg>