<?xml version="1.0" encoding="UTF-8"?> <svg xmlns="http://www.w3.org/2000/svg" id="Calque_1" data-name="Calque 1" viewBox="0 0 650 400"><defs><style>.cls-1{fill:#eaf7ef;}.cls-2{fill:#ccccd6;}.cls-3{fill:#f2f2f2;}.cls-4{fill:#fff;}.cls-5{fill:#268e50;}.cls-6{fill:#30ac67;}.cls-7{fill:#9e9ea8;}.cls-8{fill:#54c682;}.cls-9{fill:#6b6b75;}.cls-10{fill:#2f2e41;}.cls-11{fill:#3f3d56;}.cls-12{fill:#fc5f49;}.cls-13{fill:#ffc47e;}.cls-14{fill:#f9a19e;}.cls-15{fill:#3d3b3d;}.cls-16{fill:#f5f5f5;opacity:0.3;}.cls-17{fill:#dcd0be;}.cls-18{fill:#414042;}.cls-19{fill:#231f20;}</style></defs><title>remorque</title><path class="cls-1" d="M106.92,280.67c3.42,19.52,11.36,38.23,23.42,53.53a119.79,119.79,0,0,0,58.15,40c25.06,7.77,51.7,6.91,77.49,4.18a450.52,450.52,0,0,1,74.75-1.91c24.36,1.45,49.06,2.78,73-2.09,23.58-4.8,47.7-16.57,61.53-37,15-22.19,11.08-52.24-.08-75.14-8.78-18-20-35.77-17.68-56.73a290,290,0,0,1,4.95-29.86c4.33-19.73,5.15-40.6.31-60.31C458.39,97.67,449.39,81,436.06,68.6c-26-24.18-68.77-33.46-103.33-33.69-31.62-.22-63.48,13.7-84.1,37.82-12.78,15-20.69,33.2-31.88,49.24-18.89,27.08-48.24,34-73.28,53.12C111.64,199.39,100.22,242.39,106.92,280.67Z"></path><path class="cls-1" d="M235.33,39.56a12.29,12.29,0,0,0-4,.68,17.54,17.54,0,0,0-32.83.15,12.26,12.26,0,1,0-4.42,23.69h41.24a12.26,12.26,0,1,0,0-24.52Z"></path><path class="cls-1" d="M146.32,130.7a9.34,9.34,0,0,0-3,.52,13.41,13.41,0,0,0-25.09.12,9.28,9.28,0,0,0-3.38-.64,9.38,9.38,0,0,0,0,18.75h31.52a9.38,9.38,0,0,0,0-18.75Z"></path><path class="cls-1" d="M457,27.78a9.29,9.29,0,0,0-3.05.51,13.41,13.41,0,0,0-25.1.12,9.37,9.37,0,1,0-3.37,18.11H457a9.37,9.37,0,1,0,0-18.74Z"></path><path class="cls-2" d="M456.47,206.37V190.82h-6.4V183.2h-7v-10a3.83,3.83,0,0,0-1.95-3.33h0a3.82,3.82,0,0,0-5.68,3.33v10h-5.8v7.62h-4.57v15.55h-7.63v102.9H465V206.37Z"></path><rect class="cls-2" x="125.14" y="179.59" width="72.02" height="128.79"></rect><rect class="cls-2" x="301.44" y="136.17" width="72.02" height="172.21"></rect><rect class="cls-2" x="214.4" y="221.86" width="72.02" height="86.52"></rect><polygon class="cls-3" points="412.66 151.49 412.66 128.03 404.83 128.03 404.83 116.53 394.25 116.53 394.25 98.12 382.74 91.67 382.74 116.53 374 116.53 374 128.03 365.25 128.03 365.25 151.49 353.74 151.49 353.74 306.75 425.55 306.75 425.55 151.49 412.66 151.49"></polygon><path class="cls-2" d="M379.84,130.07v21.39h9.32v-9.18a.22.22,0,0,1-.2-.24v-2.29a.22.22,0,0,1,.2-.23v-9.45Z"></path><path class="cls-2" d="M399.45,130.07h-9.32v9.5a.21.21,0,0,1,.1.18V142a.21.21,0,0,1-.1.19v9.23h9.32Z"></path><path class="cls-4" d="M389,139.75V142a.21.21,0,1,0,.41,0v-2.29a.21.21,0,1,0-.41,0Z"></path><path class="cls-4" d="M390.23,142v-2.29a.21.21,0,0,0-.1-.18.14.14,0,0,0-.1,0,.22.22,0,0,0-.21.23V142a.23.23,0,0,0,.21.24.19.19,0,0,0,.1-.05A.21.21,0,0,0,390.23,142Z"></path><rect class="cls-2" x="361.45" y="268.19" width="22.09" height="8.29"></rect><rect class="cls-2" x="395.74" y="268.19" width="22.09" height="8.29"></rect><rect class="cls-2" x="361.45" y="250.23" width="22.09" height="8.29"></rect><rect class="cls-2" x="395.74" y="250.23" width="22.09" height="8.29"></rect><rect class="cls-2" x="361.45" y="232.26" width="22.09" height="8.29"></rect><rect class="cls-2" x="395.74" y="232.26" width="22.09" height="8.29"></rect><rect class="cls-2" x="361.45" y="214.29" width="22.09" height="8.29"></rect><rect class="cls-2" x="395.74" y="214.29" width="22.09" height="8.29"></rect><rect class="cls-2" x="361.45" y="196.32" width="22.09" height="8.29"></rect><rect class="cls-2" x="395.74" y="196.32" width="22.09" height="8.29"></rect><rect class="cls-2" x="361.45" y="178.36" width="22.09" height="8.29"></rect><rect class="cls-2" x="395.74" y="178.36" width="22.09" height="8.29"></rect><rect class="cls-2" x="361.45" y="160.39" width="22.09" height="8.29"></rect><rect class="cls-2" x="395.74" y="160.39" width="22.09" height="8.29"></rect><path class="cls-2" d="M379.84,285.2v21.39h9.32v-9.18a.22.22,0,0,1-.2-.23v-2.29a.22.22,0,0,1,.2-.24V285.2Z"></path><path class="cls-2" d="M399.45,285.2h-9.32v9.5a.21.21,0,0,1,.1.19v2.29a.24.24,0,0,1-.1.19v9.22h9.32Z"></path><path class="cls-4" d="M389,294.89v2.29a.21.21,0,1,0,.41,0v-2.29a.21.21,0,1,0-.41,0Z"></path><path class="cls-4" d="M390.23,297.18v-2.29a.21.21,0,0,0-.1-.19.19.19,0,0,0-.1-.05.23.23,0,0,0-.21.24v2.29a.22.22,0,0,0,.21.23.18.18,0,0,0,.1,0A.24.24,0,0,0,390.23,297.18Z"></path><path class="cls-3" d="M293.42,105.13H265.57V306.75h55.7V134.66Z"></path><path class="cls-2" d="M283.62,285.34v21.39h9.32v-9.18a.22.22,0,0,1-.2-.24V295a.22.22,0,0,1,.2-.24v-9.45Z"></path><path class="cls-2" d="M303.22,285.34h-9.31v9.5a.24.24,0,0,1,.1.19v2.28a.24.24,0,0,1-.1.19v9.23h9.31Z"></path><path class="cls-4" d="M292.74,295v2.28a.22.22,0,0,0,.2.24.23.23,0,0,0,.21-.24V295a.23.23,0,0,0-.21-.24A.22.22,0,0,0,292.74,295Z"></path><path class="cls-4" d="M294,297.31V295a.24.24,0,0,0-.1-.19s-.07,0-.11,0a.22.22,0,0,0-.2.24v2.28a.22.22,0,0,0,.2.24.18.18,0,0,0,.11-.05A.24.24,0,0,0,294,297.31Z"></path><rect class="cls-2" x="271.32" y="265.18" width="12.1" height="12.1" transform="translate(6.14 548.6) rotate(-90)"></rect><rect class="cls-2" x="287.96" y="265.18" width="12.1" height="12.1" transform="translate(22.78 565.24) rotate(-90)"></rect><rect class="cls-2" x="304.63" y="265.18" width="12.1" height="12.1" transform="translate(39.45 581.91) rotate(-90)"></rect><rect class="cls-2" x="271.32" y="247.8" width="12.1" height="12.1" transform="translate(23.53 531.22) rotate(-90)"></rect><rect class="cls-2" x="287.96" y="247.8" width="12.1" height="12.1" transform="translate(40.16 547.85) rotate(-90)"></rect><rect class="cls-2" x="304.63" y="247.8" width="12.1" height="12.1" transform="translate(56.84 564.53) rotate(-90)"></rect><rect class="cls-2" x="271.32" y="230.41" width="12.1" height="12.1" transform="translate(40.91 513.83) rotate(-90)"></rect><rect class="cls-2" x="287.96" y="230.41" width="12.1" height="12.1" transform="translate(57.55 530.47) rotate(-90)"></rect><rect class="cls-2" x="304.63" y="230.41" width="12.1" height="12.1" transform="translate(74.22 547.14) rotate(-90)"></rect><rect class="cls-2" x="271.32" y="213.02" width="12.1" height="12.1" transform="translate(58.3 496.45) rotate(-90)"></rect><rect class="cls-2" x="287.96" y="213.02" width="12.1" height="12.1" transform="translate(74.93 513.08) rotate(-90)"></rect><rect class="cls-2" x="304.63" y="213.02" width="12.1" height="12.1" transform="translate(91.61 529.76) rotate(-90)"></rect><rect class="cls-2" x="271.32" y="195.64" width="12.1" height="12.1" transform="translate(75.68 479.06) rotate(-90)"></rect><rect class="cls-2" x="287.96" y="195.64" width="12.1" height="12.1" transform="translate(92.32 495.7) rotate(-90)"></rect><rect class="cls-2" x="304.63" y="195.64" width="12.1" height="12.1" transform="translate(108.99 512.37) rotate(-90)"></rect><rect class="cls-2" x="271.32" y="178.25" width="12.1" height="12.1" transform="translate(93.07 461.68) rotate(-90)"></rect><rect class="cls-2" x="287.96" y="178.25" width="12.1" height="12.1" transform="translate(109.71 478.31) rotate(-90)"></rect><rect class="cls-2" x="304.63" y="178.25" width="12.1" height="12.1" transform="translate(126.38 494.99) rotate(-90)"></rect><rect class="cls-2" x="271.32" y="160.87" width="12.1" height="12.1" transform="translate(110.45 444.29) rotate(-90)"></rect><rect class="cls-2" x="287.96" y="160.87" width="12.1" height="12.1" transform="translate(127.09 460.93) rotate(-90)"></rect><rect class="cls-2" x="304.63" y="160.87" width="12.1" height="12.1" transform="translate(143.76 477.6) rotate(-90)"></rect><rect class="cls-2" x="271.32" y="143.48" width="12.1" height="12.1" transform="translate(127.84 426.91) rotate(-90)"></rect><rect class="cls-2" x="287.96" y="143.48" width="12.1" height="12.1" transform="translate(144.48 443.54) rotate(-90)"></rect><rect class="cls-2" x="304.63" y="143.48" width="12.1" height="12.1" transform="translate(161.15 460.22) rotate(-90)"></rect><rect class="cls-2" x="271.32" y="126.1" width="12.1" height="12.1" transform="translate(145.23 409.52) rotate(-90)"></rect><rect class="cls-2" x="287.96" y="126.1" width="12.1" height="12.1" transform="translate(161.86 426.16) rotate(-90)"></rect><polygon class="cls-2" points="316.73 138.2 304.63 138.2 304.63 126.1 316.73 138.2"></polygon><rect class="cls-2" x="271.32" y="108.71" width="12.1" height="12.1" transform="translate(162.61 392.13) rotate(-90)"></rect><polygon class="cls-2" points="300.06 120.81 287.96 120.81 287.96 108.71 300.06 120.81"></polygon><path class="cls-3" d="M164.61,91.67V306.75h29.62V286.86h16.65v19.89h29.63V91.67Z"></path><path class="cls-2" d="M192.76,285.34v21.39h9.32v-9.18a.23.23,0,0,1-.21-.24V295a.23.23,0,0,1,.21-.24v-9.45Z"></path><path class="cls-2" d="M212.36,285.34H203v9.5a.22.22,0,0,1,.11.19v2.28a.22.22,0,0,1-.11.19v9.23h9.32Z"></path><path class="cls-4" d="M201.87,295v2.28a.21.21,0,1,0,.41,0V295a.21.21,0,1,0-.41,0Z"></path><path class="cls-4" d="M203.15,297.31V295a.22.22,0,0,0-.11-.19.19.19,0,0,0-.1,0,.22.22,0,0,0-.2.24v2.28a.22.22,0,0,0,.2.24.14.14,0,0,0,.1-.05A.22.22,0,0,0,203.15,297.31Z"></path><rect class="cls-2" x="170.64" y="267.76" width="16.8" height="9.9"></rect><rect class="cls-2" x="195.63" y="267.76" width="14.67" height="9.9"></rect><rect class="cls-2" x="218.5" y="267.76" width="15.99" height="9.9"></rect><rect class="cls-2" x="170.64" y="284.44" width="16.8" height="22.28"></rect><rect class="cls-2" x="218.5" y="284.44" width="15.99" height="22.28"></rect><rect class="cls-2" x="170.64" y="252.36" width="16.8" height="9.89"></rect><rect class="cls-2" x="195.63" y="252.36" width="14.67" height="9.89"></rect><rect class="cls-2" x="218.5" y="252.36" width="15.99" height="9.89"></rect><rect class="cls-2" x="170.64" y="236.95" width="16.8" height="9.9"></rect><rect class="cls-2" x="195.63" y="236.95" width="14.67" height="9.9"></rect><rect class="cls-2" x="218.5" y="236.95" width="15.99" height="9.9"></rect><rect class="cls-2" x="170.64" y="221.54" width="16.8" height="9.9"></rect><rect class="cls-2" x="195.63" y="221.54" width="14.67" height="9.9"></rect><rect class="cls-2" x="218.5" y="221.54" width="15.99" height="9.9"></rect><rect class="cls-2" x="170.64" y="206.14" width="16.8" height="9.9"></rect><rect class="cls-2" x="195.63" y="206.14" width="14.67" height="9.9"></rect><rect class="cls-2" x="218.5" y="206.14" width="15.99" height="9.9"></rect><rect class="cls-2" x="170.64" y="190.73" width="16.8" height="9.9"></rect><rect class="cls-2" x="195.63" y="190.73" width="14.67" height="9.9"></rect><rect class="cls-2" x="218.5" y="190.73" width="15.99" height="9.9"></rect><rect class="cls-2" x="170.64" y="175.32" width="16.8" height="9.89"></rect><rect class="cls-2" x="195.63" y="175.32" width="14.67" height="9.89"></rect><rect class="cls-2" x="218.5" y="175.32" width="15.99" height="9.89"></rect><rect class="cls-2" x="170.64" y="159.91" width="16.8" height="9.9"></rect><rect class="cls-2" x="195.63" y="159.91" width="14.67" height="9.9"></rect><rect class="cls-2" x="218.5" y="159.91" width="15.99" height="9.9"></rect><rect class="cls-2" x="170.64" y="144.5" width="16.8" height="9.9"></rect><rect class="cls-2" x="195.63" y="144.5" width="14.67" height="9.9"></rect><rect class="cls-2" x="218.5" y="144.5" width="15.99" height="9.9"></rect><rect class="cls-2" x="170.64" y="129.1" width="16.8" height="9.9"></rect><rect class="cls-2" x="195.63" y="129.1" width="14.67" height="9.9"></rect><rect class="cls-2" x="218.5" y="129.1" width="15.99" height="9.9"></rect><rect class="cls-2" x="170.64" y="113.69" width="16.8" height="9.9"></rect><rect class="cls-2" x="195.63" y="113.69" width="14.67" height="9.9"></rect><rect class="cls-2" x="218.5" y="113.69" width="15.99" height="9.9"></rect><rect class="cls-2" x="170.64" y="98.29" width="16.8" height="9.9"></rect><rect class="cls-2" x="195.63" y="98.29" width="14.67" height="9.9"></rect><rect class="cls-2" x="218.5" y="98.29" width="15.99" height="9.9"></rect><path class="cls-5" d="M482.37,310H107.79a1.66,1.66,0,0,1-1.66-1.66h0a1.66,1.66,0,0,1,1.66-1.66H482.37a1.66,1.66,0,0,1,1.66,1.66h0A1.67,1.67,0,0,1,482.37,310Z"></path><path class="cls-6" d="M428,251c-1-3.58-3-6.83-6.84-7.1-3.21-.23-6.13,2.22-8.09,4.5-6.59,7.65-7.7,18.81-7,28.53.42,6.18,2.83,13.89,10.56,13.2,6.47-.57,9.21-7,10.57-12.44a60.88,60.88,0,0,0,1.93-20.41A34.41,34.41,0,0,0,428,251Z"></path><path class="cls-5" d="M416.8,251.85l.1,18.72.15,29.81,0,6.81a1,1,0,0,0,2,0L419,288.48l-.16-29.82,0-6.81a1,1,0,0,0-2,0Z"></path><path class="cls-5" d="M409.48,279.69a10.62,10.62,0,0,0,3,3.87,6.26,6.26,0,0,0,2.31,1,8.45,8.45,0,0,0,2.83.33,1,1,0,0,0,1-1,1,1,0,0,0-1-1,6.25,6.25,0,0,1-2.24-.24,8.84,8.84,0,0,1-1.14-.35c.13.05,0,0,0,0l-.2-.12-.24-.16-.08,0c.06,0,.06,0,0,0a7.28,7.28,0,0,1-.81-.76l-.36-.41-.28-.35a10.45,10.45,0,0,1-1.05-1.77,1,1,0,0,0-1.37-.35,1,1,0,0,0-.36,1.36Z"></path><path class="cls-5" d="M418.41,280a3.6,3.6,0,0,0,2.26-.77,8.61,8.61,0,0,0,1.81-1.65,9.51,9.51,0,0,0,1.28-2.11,6.41,6.41,0,0,0,.72-2.77,1,1,0,0,0-1-1,1,1,0,0,0-1,1,1,1,0,0,1,0,.24c0,.08,0,.25,0,.07a5.23,5.23,0,0,1-.12.54,5.05,5.05,0,0,1-.18.55c0,.09-.07.19-.11.28l-.05.12a10.09,10.09,0,0,1-.54,1l-.27.44-.12.16c-.09.16.14-.16,0,0a8.42,8.42,0,0,1-.64.7l-.38.35-.2.17c-.06,0-.05,0,0,0l-.1.08c-.14.1-.28.2-.43.29l-.22.12s-.26.12-.13.07-.11,0-.13,0l-.22.06-.1,0,.1,0a1.85,1.85,0,0,0-.23,0,1,1,0,0,0-1,1,1,1,0,0,0,1,1Z"></path><path class="cls-5" d="M410.4,271.54c.05,1.69,1.37,3,2.66,3.87a10.6,10.6,0,0,0,2.12,1.15,6.11,6.11,0,0,0,2.52.54,1,1,0,0,0,1-1,1,1,0,0,0-1-1h-.46c-.3,0,.17,0-.13,0l-.25-.05a7.61,7.61,0,0,1-1.05-.35l-.06,0-.29-.13-.46-.24a8,8,0,0,1-.79-.49c-.12-.08-.24-.16-.35-.25s.09.08-.05,0l-.18-.15a6.32,6.32,0,0,1-.69-.68l-.09-.11c.07.09-.07-.1-.09-.11s-.15-.25-.22-.38-.09-.27,0-.07l-.06-.2c0-.07,0-.13-.05-.2,0,.17,0,0,0-.06a1,1,0,0,0-2,0Z"></path><path class="cls-5" d="M418.46,268.1a3.18,3.18,0,0,0,2-.61,7.21,7.21,0,0,0,1.37-1.15,9.84,9.84,0,0,0,1.06-1.35,3.44,3.44,0,0,0,.63-1.74,1,1,0,0,0-1-1,1,1,0,0,0-1,1c0,.22,0-.16,0-.08a.83.83,0,0,1,0,.15.74.74,0,0,1,0,.14c0,.09-.11.17,0,0-.12.2-.21.42-.35.62s-.12.19-.19.28l-.06.08c.11-.15,0,0-.06.07s-.26.31-.4.46a6.25,6.25,0,0,1-.45.44,3.47,3.47,0,0,1-.29.25l.08-.06-.1.07-.15.11-.32.2L419,266c-.22.11.18,0,0,0s-.22.07-.33.09.23,0,.05,0h-.22a1,1,0,1,0,0,2Z"></path><path class="cls-5" d="M413.28,259.38c0,.05.05.11.08.16l0-.1,0,.09c0,.13.1.26.14.4s.15.48.24.71a4.51,4.51,0,0,0,.83,1.56,4.41,4.41,0,0,0,.93.73,4.57,4.57,0,0,0,1.17.53,2.25,2.25,0,0,0,.73.09,1.7,1.7,0,0,0,.45-.08,1.64,1.64,0,0,0,.57-.33,1,1,0,0,0,.29-.71,1,1,0,0,0-.29-.7,1,1,0,0,0-.71-.3,1.16,1.16,0,0,0-.7.3s.23-.18.13-.11.25-.09.15-.07a.5.5,0,0,1-.13,0l.27,0a1.13,1.13,0,0,1-.26,0l.27,0a1.89,1.89,0,0,1-.48-.13c-.2-.07.08,0,.08,0s-.12-.06-.14-.07l-.24-.13a4.53,4.53,0,0,1-.46-.3l.08.06-.09-.07-.16-.15-.06-.07c-.12-.12.15.23.08.11l-.18-.29a1.3,1.3,0,0,1-.08-.17l0-.1c.08.15,0-.08,0-.11l-.06-.17a15.7,15.7,0,0,0-.62-1.66,1,1,0,1,0-1.73,1Z"></path><path class="cls-1" d="M441.86,227.05c0-1.2-.11-2.51-.11-3.79,0-2.68,4.05-2.88,4.27-.21.05.59.05,1.21,0,1.82a2.12,2.12,0,0,0,2.69,2.09c4.34-1.27,3.68,5.06,2.36,10.3a2.1,2.1,0,0,0,2.48,2.53c1.4-.22,2.61.61,3.15,3.23a9.18,9.18,0,0,1-.77,5.56,2.13,2.13,0,0,0,1.89,2.93c6.26.34,4.43,6.9,1,12.21A2.19,2.19,0,0,0,460,267c.83.25,1.38.88,1.81,2.37.64,2.21-4.05,4.08-4.51,6.2-1,4.77.12,10.71-3.77,13.84-9.82,7.89-22.25-3.59-27-11.9-1.55-2.76-2.74-5.82-2.29-9.06.4-2.87,4.05-7.26,6.32-3-1.84-2.69-4.34-7.25-4.29-10.56a5.53,5.53,0,0,1,3.77-4.68,2.12,2.12,0,0,0,1.5-2.75c-.65-2-1.28-4.14-.88-6.28.81-4.38,6-4,6.8.19-1.23-2.87-2.69-8.52-1.74-11.67,1.4-4.64,5.86-5,5.43,0"></path><path class="cls-5" d="M442.85,233.66l.13,24.81.2,39.38.05,9a1,1,0,0,0,2,0l-.13-24.82-.2-39.37,0-9a1,1,0,0,0-2,0Z"></path><path class="cls-5" d="M444.27,283.41a8.13,8.13,0,0,0,6.11-3.4,16.43,16.43,0,0,0,1.53-2.79,4.61,4.61,0,0,0,.81-2.87,1,1,0,0,0-1.23-.7,1,1,0,0,0-.69,1.23c0-.18,0-.2,0-.09v.07c0-.14,0-.16,0,0l0,.08a4.93,4.93,0,0,1-.19.54c.06-.15-.05.11-.07.14s-.08.19-.13.28l-.25.52a13.91,13.91,0,0,1-1.38,2.51,7.59,7.59,0,0,1-2,1.78,4.68,4.68,0,0,1-2.44.74,1,1,0,0,0,0,2Z"></path><path class="cls-5" d="M433.13,270.33a13.58,13.58,0,0,0,3.93,5,7.81,7.81,0,0,0,2.94,1.31,11,11,0,0,0,3.65.42,1,1,0,0,0,1-1,1,1,0,0,0-1-1,9,9,0,0,1-3-.33,5.94,5.94,0,0,1-2.39-1,11.83,11.83,0,0,1-3.35-4.41,1,1,0,0,0-1.37-.36,1,1,0,0,0-.36,1.37Z"></path><path class="cls-5" d="M444.65,270.59a4.52,4.52,0,0,0,2.84-1,11.07,11.07,0,0,0,2.33-2.15,12.34,12.34,0,0,0,1.65-2.72,8.41,8.41,0,0,0,.9-3.5,1,1,0,0,0-2,0,3.65,3.65,0,0,1-.17,1.21,8.94,8.94,0,0,1-.49,1.34,13.33,13.33,0,0,1-.71,1.35c-.11.2-.23.39-.36.59l-.15.21c-.1.14.07-.08-.08.11a11.18,11.18,0,0,1-1.79,1.73,6.56,6.56,0,0,1-1.07.64l-.49.15-.14,0c.1,0,.11,0,0,0h-.31a1,1,0,0,0,0,2Z"></path><path class="cls-5" d="M434.39,259.7c.06,2.11,1.74,3.71,3.36,4.85a14,14,0,0,0,2.72,1.48,7.68,7.68,0,0,0,3.26.7,1,1,0,0,0,0-2,8.52,8.52,0,0,1-4.79-1.78,8.92,8.92,0,0,1-1.74-1.52,4.05,4.05,0,0,1-.58-.86,2,2,0,0,1-.23-.87c0-1.28-2-1.28-2,0Z"></path><path class="cls-5" d="M444.73,254.84a4.1,4.1,0,0,0,2.45-.77,9.81,9.81,0,0,0,1.74-1.48,11.75,11.75,0,0,0,1.35-1.72,4.23,4.23,0,0,0,.79-2.13,1,1,0,0,0-1-1,1,1,0,0,0-1,1c0,.24,0-.09,0,0a1.18,1.18,0,0,0,0,.2l-.06.18,0,.09c0,.07,0,0,0-.09,0,.1-.17.34-.21.42s-.17.27-.26.41-.16.25-.25.37l-.11.14c.1-.12-.08.1-.1.13-.17.21-.35.41-.53.61s-.39.39-.59.58l-.39.33,0,0-.13.1-.2.14-.42.26-.26.13c-.23.11.1,0-.08,0a3.6,3.6,0,0,1-.44.12c-.22,0,.18,0,0,0h-.29a1,1,0,0,0-1,1,1,1,0,0,0,1,1Z"></path><path class="cls-5" d="M438.15,243.45a.91.91,0,0,1,.11.22s-.07-.16,0,0a1.17,1.17,0,0,1,0,.11,4.72,4.72,0,0,1,.18.53c.11.31.21.63.32.94a5.55,5.55,0,0,0,1,1.92A5.68,5.68,0,0,0,441,248a5.74,5.74,0,0,0,1.47.67,2.63,2.63,0,0,0,.88.11,1.92,1.92,0,0,0,1.12-.45,1,1,0,0,0,.3-.7,1,1,0,0,0-.3-.71,1,1,0,0,0-1.41,0c.16-.12.2-.15.11-.1s0,0,.14,0a.42.42,0,0,0-.15,0c.24-.11.23,0,.11,0h-.18c.19,0,.23,0,.13,0l-.1,0-.14,0-.2-.07c-.08,0-.3-.14,0,0-.23-.12-.48-.23-.7-.37s-.26-.16-.38-.24l-.13-.1c.27.18.07,0,0,0l-.24-.22-.1-.11c-.11-.11.15.24.05.07s-.21-.34-.3-.51l-.13-.3c.06.16,0,0,0-.06-.31-.81-.52-1.64-.9-2.42a1,1,0,0,0-1.37-.36,1,1,0,0,0-.36,1.37Z"></path><path class="cls-6" d="M475.59,251c-1-3.58-3-6.83-6.85-7.1-3.2-.23-6.13,2.22-8.09,4.5-6.58,7.65-7.69,18.81-7,28.53.42,6.18,2.82,13.89,10.55,13.2,6.47-.57,9.22-7,10.58-12.44a61.14,61.14,0,0,0,1.93-20.41A36.22,36.22,0,0,0,475.59,251Z"></path><path class="cls-5" d="M464.34,251.85l.1,18.72.15,29.81,0,6.81a1,1,0,0,0,2,0l-.1-18.71-.15-29.82,0-6.81a1,1,0,0,0-2,0Z"></path><path class="cls-5" d="M457,279.69a10.42,10.42,0,0,0,3,3.87,6.29,6.29,0,0,0,2.3,1,8.48,8.48,0,0,0,2.83.33,1,1,0,0,0,1-1,1,1,0,0,0-1-1,6.25,6.25,0,0,1-2.24-.24,9.35,9.35,0,0,1-1.14-.35c.14.05,0,0,0,0l-.2-.12-.24-.16-.08,0h0a7.19,7.19,0,0,1-.8-.76,4.59,4.59,0,0,1-.36-.41c-.14-.17-.19-.22-.28-.35a9.28,9.28,0,0,1-1.05-1.77,1,1,0,0,0-1.73,1Z"></path><path class="cls-5" d="M466,280a3.64,3.64,0,0,0,2.27-.77,8.86,8.86,0,0,0,1.81-1.65,9.91,9.91,0,0,0,1.28-2.11,6.7,6.7,0,0,0,.72-2.77,1,1,0,0,0-2,0,1.93,1.93,0,0,1,0,.24c0,.08,0,.25,0,.07a5.23,5.23,0,0,1-.12.54c0,.19-.11.37-.17.55s-.07.19-.11.28c.06-.16,0,.09-.06.12-.16.35-.34.7-.53,1l-.28.44a.91.91,0,0,0-.11.16c-.1.16.14-.16,0,0s-.41.48-.63.7l-.39.35-.2.17q-.09.06,0,0l-.11.08c-.14.1-.28.2-.43.29l-.21.12s-.27.12-.14.07-.1,0-.13,0l-.21.06-.11,0,.1,0a1.77,1.77,0,0,0-.23,0,1,1,0,0,0,0,2Z"></path><path class="cls-5" d="M457.94,271.54c.06,1.69,1.37,3,2.66,3.87a10.88,10.88,0,0,0,2.12,1.15,6.15,6.15,0,0,0,2.53.54,1,1,0,0,0,1-1,1,1,0,0,0-1-1h-.47c-.3,0,.18,0-.12,0l-.25-.05a7.74,7.74,0,0,1-1.06-.35c.1,0,0,0-.05,0l-.29-.13-.47-.24c-.27-.15-.53-.31-.79-.49l-.35-.25c-.09-.06.1.08,0,0l-.17-.15a5.54,5.54,0,0,1-.69-.68s-.17-.2-.1-.11l-.08-.11c-.08-.12-.16-.25-.23-.38s-.09-.27,0-.07c0-.07-.05-.13-.07-.2s0-.13,0-.2c0,.17,0,0,0-.06a1,1,0,0,0-1-1,1,1,0,0,0-1,1Z"></path><path class="cls-5" d="M466,268.1a3.2,3.2,0,0,0,2-.61,7.53,7.53,0,0,0,1.37-1.15,9.84,9.84,0,0,0,1.06-1.35,3.53,3.53,0,0,0,.63-1.74,1,1,0,0,0-2,0c0,.22,0-.16,0-.08l0,.15,0,.14c0,.09-.11.17,0,0-.13.2-.22.42-.35.62l-.2.28s-.17.22-.05.08,0,0-.06.07-.27.31-.41.46l-.44.44-.3.25.08-.06-.1.07-.15.11-.32.2-.19.09c-.22.11.18,0,0,0a3.37,3.37,0,0,1-.34.09c-.19,0,.23,0,.05,0H466a1,1,0,0,0,0,2Z"></path><path class="cls-5" d="M460.82,259.38c0,.05.05.11.08.16l0-.1,0,.09c.05.13.1.26.14.4l.24.71a4.53,4.53,0,0,0,.84,1.56,4.35,4.35,0,0,0,.92.73,4.57,4.57,0,0,0,1.17.53,2.29,2.29,0,0,0,.73.09,1.7,1.7,0,0,0,.45-.08,1.59,1.59,0,0,0,.58-.33,1,1,0,0,0,.29-.71,1,1,0,0,0-.29-.7,1,1,0,0,0-.71-.3,1.19,1.19,0,0,0-.71.3l.14-.11c-.11.07.25-.09.15-.07l-.13,0,.26,0a1.15,1.15,0,0,1-.26,0l.27,0a1.89,1.89,0,0,1-.48-.13c-.19-.07.08,0,.08,0s-.12-.06-.13-.07l-.25-.13a4.53,4.53,0,0,1-.46-.3l.08.06-.09-.07-.16-.15-.06-.07c-.11-.12.16.23.08.11s-.12-.19-.17-.29l-.09-.17s-.13-.26-.05-.1,0-.08,0-.11l-.06-.17a13.77,13.77,0,0,0-.62-1.66,1,1,0,0,0-1.37-.36,1,1,0,0,0-.36,1.37Z"></path><path class="cls-6" d="M121.38,268.51c-.71-2.47-2-4.71-4.71-4.9-2.22-.15-4.23,1.53-5.58,3.1-4.53,5.27-5.3,13-4.84,19.66.28,4.26,1.94,9.56,7.27,9.09,4.45-.39,6.34-4.79,7.28-8.57a42,42,0,0,0,1.33-14.06A24.23,24.23,0,0,0,121.38,268.51Z"></path><path class="cls-5" d="M113.32,269.07l.17,33.46,0,4.66a1,1,0,0,0,2,0l-.17-33.46,0-4.66a1,1,0,0,0-2,0Z"></path><path class="cls-5" d="M108.33,288.41a7.42,7.42,0,0,0,2.16,2.74,4.62,4.62,0,0,0,1.7.78,6.31,6.31,0,0,0,2,.23,1,1,0,0,0,1-1,1,1,0,0,0-1-1,2.81,2.81,0,0,1-.41,0,1.23,1.23,0,0,1-.43,0h.1l-.12,0-.2,0-.4-.09-.42-.12c-.06,0-.31-.15-.37-.13s.22.11,0,0l-.14-.08-.17-.1c-.15-.1.11.09,0,0s-.38-.34-.55-.52l-.25-.29a1.15,1.15,0,0,1-.14-.17c0,.1.07.09,0,0a7.07,7.07,0,0,1-.73-1.21,1,1,0,0,0-1.36-.36,1,1,0,0,0-.36,1.37Z"></path><path class="cls-5" d="M114.74,288.78a2.84,2.84,0,0,0,1.72-.57,6.44,6.44,0,0,0,1.31-1.19,6.6,6.6,0,0,0,.93-1.52,5,5,0,0,0,.54-2.06,1,1,0,0,0-2,0v.16a.49.49,0,0,0,0,.12l0-.15a1.54,1.54,0,0,0-.09.37,2.4,2.4,0,0,1-.12.38c0,.05,0,.15-.07.19l0-.05,0,.06a6,6,0,0,1-.37.71c-.06.1-.12.2-.19.3a.44.44,0,0,1-.08.11c-.09.15.18-.2,0,0s-.28.33-.43.48l-.27.24-.14.12c-.07.06.19-.14,0,0l-.29.2-.15.08s-.23.1-.06,0l0,0-.15,0c-.2.06.17,0,.08,0h-.16a1,1,0,0,0-1,1,1,1,0,0,0,1,1Z"></path><path class="cls-5" d="M108.91,282.63a4,4,0,0,0,2,2.94,7.79,7.79,0,0,0,1.53.82,4.29,4.29,0,0,0,1.83.38,1,1,0,0,0,0-2,1.69,1.69,0,0,1-.32,0c-.23,0,.22.06,0,0l-.17,0a6.26,6.26,0,0,1-.73-.24s.19.08,0,0l-.2-.09-.32-.17a4.86,4.86,0,0,1-.54-.33l-.25-.17c-.09-.07.17.13,0,0l-.13-.1a3.48,3.48,0,0,1-.47-.47s-.12-.18,0,0,0,0,0,0a2.2,2.2,0,0,1-.15-.26.2.2,0,0,1,0-.08c0-.07,0,0,0,.11,0,0,0-.11,0-.14a.7.7,0,0,0,0-.14c0,.07,0,.24,0,0a1,1,0,0,0-1-1,1,1,0,0,0-1,1Z"></path><path class="cls-5" d="M114.78,280.58a2.42,2.42,0,0,0,1.51-.47,5.43,5.43,0,0,0,1-.84,7.38,7.38,0,0,0,.78-1,2.79,2.79,0,0,0,.48-1.36,1,1,0,0,0-2,0,.28.28,0,0,0,0,.09l0-.27a1.91,1.91,0,0,1-.1.34l.1-.24a3.94,3.94,0,0,1-.49.78l.16-.2a5.57,5.57,0,0,1-.93.95l.2-.16a2.92,2.92,0,0,1-.65.4l.24-.1a1.78,1.78,0,0,1-.38.1l.26,0h-.22a1,1,0,0,0-.71.29,1,1,0,0,0-.29.71,1,1,0,0,0,.29.7,1.17,1.17,0,0,0,.71.3Z"></path><path class="cls-5" d="M110.94,274.41a1,1,0,0,1,.07.15l-.1-.23a6.46,6.46,0,0,0,1,2.11,3.44,3.44,0,0,0,.72.55,3.2,3.2,0,0,0,.87.38,1.82,1.82,0,0,0,.57.07,1.59,1.59,0,0,0,.38-.06,1.65,1.65,0,0,0,.53-.31,1,1,0,0,0,.3-.71,1,1,0,0,0-.3-.71,1,1,0,0,0-.7-.29l-.27,0a1,1,0,0,0-.44.25h0l.2-.15-.07,0,.24-.1a.23.23,0,0,1-.11,0l.26,0h-.18l.27,0a1.9,1.9,0,0,1-.39-.11l.24.1a2.83,2.83,0,0,1-.67-.4l.2.16a2.44,2.44,0,0,1-.29-.27l.16.2a2,2,0,0,1-.27-.49l.1.23c-.2-.49-.33-1-.56-1.49a1.06,1.06,0,0,0-.6-.46,1.08,1.08,0,0,0-.77.1,1.06,1.06,0,0,0-.46.6,1.14,1.14,0,0,0,.1.77Z"></path><path class="cls-1" d="M130.9,252c0-.83-.08-1.73-.08-2.62a1.47,1.47,0,0,1,2.94-.14,10.5,10.5,0,0,1,0,1.26,1.46,1.46,0,0,0,1.86,1.43c3-.87,2.53,3.49,1.62,7.1a1.44,1.44,0,0,0,1.71,1.74c1-.15,1.79.42,2.17,2.23a6.34,6.34,0,0,1-.53,3.83,1.46,1.46,0,0,0,1.3,2c4.31.24,3.05,4.75.72,8.41a1.51,1.51,0,0,0,.76,2.28c.57.17.94.6,1.24,1.63.44,1.52-2.79,2.81-3.1,4.28-.71,3.28.07,7.37-2.61,9.52-6.76,5.44-15.32-2.47-18.56-8.19a9.94,9.94,0,0,1-1.58-6.24c.27-2,2.78-5,4.35-2-1.27-1.85-3-5-3-7.27a3.79,3.79,0,0,1,2.59-3.22,1.47,1.47,0,0,0,1-1.9,8.81,8.81,0,0,1-.61-4.32c.56-3,4.12-2.79,4.68.12-.84-2-1.85-5.86-1.19-8,1-3.19,4-3.43,3.73,0"></path><path class="cls-5" d="M131.27,256.54l.09,17,.14,27.22,0,6.22a1,1,0,0,0,2,0l-.09-17-.14-27.22,0-6.22a1,1,0,0,0-2,0Z"></path><path class="cls-5" d="M132.56,291.12a5.94,5.94,0,0,0,4.48-2.5,11.84,11.84,0,0,0,1.05-1.91,3.58,3.58,0,0,0,.59-2.23,1,1,0,0,0-1.23-.7,1,1,0,0,0-.7,1.23c-.06-.31,0-.19,0-.09,0-.31,0-.14,0-.05a1.63,1.63,0,0,1-.13.37c.14-.22,0-.05,0,0l-.09.19-.18.36a9.71,9.71,0,0,1-.95,1.73c.11-.14,0,0-.07.08l-.18.19-.36.35-.2.17s-.23.17-.06.05a4.15,4.15,0,0,1-.41.27c-.14.09-.28.16-.43.24s.09,0,0,0l-.23.08-.48.12h-.36a1,1,0,0,0,0,2Z"></path><path class="cls-5" d="M124.62,282a9.47,9.47,0,0,0,2.78,3.55,5.78,5.78,0,0,0,2.13,1,7.92,7.92,0,0,0,2.6.3,1,1,0,0,0,1-1,1,1,0,0,0-1-1,5.51,5.51,0,0,1-2-.21,7.27,7.27,0,0,1-1-.33c.12,0,.07,0,0,0l-.19-.1-.21-.14c-.16-.1,0,0-.06,0a7.72,7.72,0,0,1-2.26-3,1,1,0,0,0-1.36-.36,1,1,0,0,0-.36,1.36Z"></path><path class="cls-5" d="M132.82,282.29a3.44,3.44,0,0,0,2.11-.71,7.84,7.84,0,0,0,1.67-1.53,8.53,8.53,0,0,0,1.18-1.94,6.06,6.06,0,0,0,.67-2.57,1,1,0,0,0-2,0v.22c0,.11,0,.21,0,.05a4.85,4.85,0,0,1-.11.49c-.05.17-.1.33-.16.5l-.1.25c.08-.19,0,.06,0,.09-.15.32-.31.63-.49.94-.08.13-.16.27-.25.4l-.1.15c-.1.15.15-.18,0,0s-.38.43-.58.63l-.35.32-.19.15c0,.05,0,0,.05,0l-.1.07-.39.26-.2.11s-.25.12-.11.06-.08,0-.11,0l-.19.06h-.1c.15,0,.19,0,.11,0s-.14,0-.21,0a1,1,0,0,0-1,1,1,1,0,0,0,1,1Z"></path><path class="cls-5" d="M125.44,274.48c0,1.57,1.26,2.76,2.47,3.61a10.43,10.43,0,0,0,2,1.05,5.65,5.65,0,0,0,2.32.49,1,1,0,0,0,1-1,1,1,0,0,0-1-1,3,3,0,0,1-.42,0c-.28,0,.19.05-.09,0l-.23-.05a6.32,6.32,0,0,1-1-.31c.1,0,0,0,0,0l-.27-.12-.42-.22-.72-.44-.32-.23c-.09-.07.12.1,0,0l-.16-.13a6.16,6.16,0,0,1-.63-.62l-.08-.09c.08.1-.06-.08-.07-.1a2.39,2.39,0,0,1-.21-.34c0-.07-.07-.26,0-.05l-.06-.18a.58.58,0,0,1,0-.18l0,.12a.76.76,0,0,1,0-.15,1,1,0,0,0-1-1,1,1,0,0,0-1,1Z"></path><path class="cls-5" d="M132.88,271.44a3.06,3.06,0,0,0,1.84-.57A6.8,6.8,0,0,0,136,269.8a7.94,7.94,0,0,0,1-1.25,3.19,3.19,0,0,0,.59-1.63,1,1,0,0,0-2,0c0,.22,0-.18,0-.09s0,.09,0,.14a.56.56,0,0,1,0,.12c0,.09-.1.18,0-.07-.1.19-.19.38-.31.57l-.18.25-.05.07,0,0c-.12.15-.24.29-.37.43s-.27.27-.41.39l-.27.23.09-.07-.09.07-.14.1-.28.18-.18.09c-.21.1.2-.07,0,0l-.31.08c-.18,0,.25,0,.07,0h-.19a1,1,0,0,0-1,1,1,1,0,0,0,1,1Z"></path><path class="cls-5" d="M128.08,263.44l.09.2-.1-.24a7.77,7.77,0,0,0,1.22,2.66,4.69,4.69,0,0,0,2,1.15,2.19,2.19,0,0,0,.67.07,1.48,1.48,0,0,0,.42-.07,1.74,1.74,0,0,0,.56-.32,1,1,0,0,0,.29-.71,1,1,0,0,0-.29-.71,1,1,0,0,0-.71-.29,1.15,1.15,0,0,0-.7.29l0,0,.2-.16-.09.05.24-.1-.15,0,.26,0a.88.88,0,0,1-.23,0l.26,0a2.21,2.21,0,0,1-.5-.15l.23.1a3.81,3.81,0,0,1-.89-.53l.2.16a2.55,2.55,0,0,1-.38-.35l.16.2a3.24,3.24,0,0,1-.36-.66l.1.24c-.25-.63-.41-1.29-.71-1.9a1,1,0,0,0-1.37-.36,1,1,0,0,0-.35,1.37Z"></path><path class="cls-6" d="M154.13,268.51c-.71-2.47-2-4.71-4.71-4.9-2.21-.15-4.23,1.53-5.58,3.1-4.53,5.27-5.3,13-4.84,19.66.29,4.26,1.94,9.56,7.27,9.09,4.46-.39,6.35-4.79,7.28-8.57a42,42,0,0,0,1.33-14.06A24.23,24.23,0,0,0,154.13,268.51Z"></path><path class="cls-5" d="M146.07,269.07l.18,33.46,0,4.66a1,1,0,0,0,2,0l-.17-33.46,0-4.66a1,1,0,0,0-2,0Z"></path><path class="cls-5" d="M141.08,288.41a7.42,7.42,0,0,0,2.16,2.74,4.62,4.62,0,0,0,1.7.78,6.31,6.31,0,0,0,2,.23,1,1,0,0,0,1-1,1,1,0,0,0-1-1,2.81,2.81,0,0,1-.41,0,1.23,1.23,0,0,1-.43,0h.1l-.12,0-.2,0-.4-.09-.42-.12c-.06,0-.31-.15-.37-.13s.22.11.05,0l-.14-.08-.17-.1c-.15-.1.11.09,0,0a7,7,0,0,1-.56-.52l-.25-.29a1.15,1.15,0,0,1-.14-.17c.05.1.07.09,0,0a7.07,7.07,0,0,1-.73-1.21,1,1,0,0,0-1.36-.36,1,1,0,0,0-.36,1.37Z"></path><path class="cls-5" d="M147.49,288.78a2.8,2.8,0,0,0,1.72-.57,6.44,6.44,0,0,0,1.31-1.19,6.6,6.6,0,0,0,.93-1.52,4.82,4.82,0,0,0,.54-2.06,1,1,0,0,0-2,0v.16s0,.08,0,.12l0-.15a1.53,1.53,0,0,0-.08.37c0,.13-.08.26-.13.38s0,.15-.07.19c.06-.13.06-.15,0-.05l0,.06a6,6,0,0,1-.37.71c-.06.1-.12.2-.19.3a.44.44,0,0,1-.08.11c-.09.15.18-.2,0,0s-.29.33-.44.48l-.27.24-.14.12c-.07.06.2-.14,0,0l-.29.2-.15.08s-.23.1-.06,0l-.05,0-.15,0c-.2.06.17,0,.08,0h-.16a1,1,0,0,0-1,1,1,1,0,0,0,1,1Z"></path><path class="cls-5" d="M141.67,282.63a4,4,0,0,0,2,2.94,7.59,7.59,0,0,0,1.54.82,4.22,4.22,0,0,0,1.82.38,1,1,0,0,0,0-2,1.69,1.69,0,0,1-.32,0c-.23,0,.22.06,0,0l-.17,0a5.5,5.5,0,0,1-.72-.24s.18.08,0,0l-.2-.09-.32-.17a6,6,0,0,1-.54-.33l-.24-.17c-.1-.07.17.13,0,0l-.12-.1a3.55,3.55,0,0,1-.48-.47s-.12-.18,0,0,0,0,0,0l-.15-.26a.59.59,0,0,1,0-.08c0-.07,0,0,0,.11a.58.58,0,0,0,0-.14.7.7,0,0,0,0-.14c0,.07,0,.24,0,0a1,1,0,0,0-2,0Z"></path><path class="cls-5" d="M147.53,280.58a2.45,2.45,0,0,0,1.52-.47,5.71,5.71,0,0,0,1-.84,7.38,7.38,0,0,0,.78-1,2.79,2.79,0,0,0,.48-1.36,1,1,0,0,0-2,0s0,.06,0,.09l0-.27a1.91,1.91,0,0,1-.1.34l.1-.24a3.94,3.94,0,0,1-.49.78l.16-.2a5.57,5.57,0,0,1-.93.95l.2-.16a2.92,2.92,0,0,1-.65.4l.24-.1a1.78,1.78,0,0,1-.38.1l.26,0h-.22a1,1,0,0,0-.71.29,1,1,0,0,0-.29.71,1,1,0,0,0,.29.7,1.17,1.17,0,0,0,.71.3Z"></path><path class="cls-5" d="M143.69,274.41a1,1,0,0,1,.07.15l-.1-.23a6.29,6.29,0,0,0,1,2.11,3.14,3.14,0,0,0,.71.55,3.2,3.2,0,0,0,.87.38,1.86,1.86,0,0,0,.57.07,1.76,1.76,0,0,0,.39-.06,1.89,1.89,0,0,0,.53-.31,1.05,1.05,0,0,0,.29-.71,1,1,0,0,0-1-1l-.27,0a1,1,0,0,0-.44.25h0l.2-.15-.07,0,.24-.1a.23.23,0,0,1-.11,0l.26,0h-.18l.27,0a1.93,1.93,0,0,1-.41-.12l.24.1a2.88,2.88,0,0,1-.65-.39l.2.16A2.44,2.44,0,0,1,146,275l.16.2a2.34,2.34,0,0,1-.27-.49l.1.23c-.2-.49-.33-1-.56-1.49a1,1,0,0,0-.6-.46,1.08,1.08,0,0,0-.77.1,1.06,1.06,0,0,0-.46.6,1.14,1.14,0,0,0,.1.77Z"></path><path class="cls-6" d="M255.58,266.85c-.74-2.57-2.14-4.91-4.92-5.11-2.3-.16-4.4,1.6-5.81,3.24-4.73,5.49-5.53,13.51-5,20.49.3,4.45,2,10,7.58,9.49,4.65-.41,6.62-5,7.6-8.94a44,44,0,0,0,1.38-14.66A24.7,24.7,0,0,0,255.58,266.85Z"></path><path class="cls-5" d="M247.22,267.44l.18,34.75,0,5a1,1,0,0,0,2,0l-.18-34.75,0-5a1,1,0,0,0-2,0Z"></path><path class="cls-5" d="M242,287.58a7.61,7.61,0,0,0,2.24,2.85,4.61,4.61,0,0,0,1.76.8,6.2,6.2,0,0,0,2.1.24,1,1,0,0,0,0-2,4.22,4.22,0,0,1-.87,0c.14,0,.07,0,0,0l-.21,0-.42-.1a4.7,4.7,0,0,1-.82-.25s.23.11,0,0l-.15-.08-.17-.11c-.16-.1.1.08,0,0a7.54,7.54,0,0,1-.58-.55l-.26-.29-.14-.19c.08.11.05.07,0,0a7.76,7.76,0,0,1-.76-1.27,1,1,0,0,0-1.37-.36,1,1,0,0,0-.35,1.37Z"></path><path class="cls-5" d="M248.66,288a2.92,2.92,0,0,0,1.77-.59,6.67,6.67,0,0,0,1.36-1.24,6.82,6.82,0,0,0,1-1.57,5.11,5.11,0,0,0,.56-2.13,1,1,0,0,0-1-1,1,1,0,0,0-1,1,.91.91,0,0,1,0,.17.49.49,0,0,1,0,.12l0-.14a1.59,1.59,0,0,0-.08.39c0,.13-.08.26-.13.39a.7.7,0,0,1-.08.2c.14-.2,0,0,0,0a7.33,7.33,0,0,1-.39.73l-.19.32-.09.11c-.09.15.18-.2,0,0a5.34,5.34,0,0,1-.46.5l-.27.25-.15.12c-.07.06.19-.13,0,0l-.3.2-.16.09s-.23.1-.06,0l-.06,0-.16,0c-.2.06.16,0,.07,0h-.16a1,1,0,0,0-1,1,1,1,0,0,0,1,1Z"></path><path class="cls-5" d="M242.62,281.58a4.1,4.1,0,0,0,2.06,3,8,8,0,0,0,1.58.85,4.61,4.61,0,0,0,1.89.39,1,1,0,0,0,1-1,1,1,0,0,0-1-1h-.33c-.24,0,.22,0,0,0l-.18,0-.36-.1a1.85,1.85,0,0,1-.39-.15s.13.06,0,0l-.21-.1-.33-.17-.56-.35-.26-.18c-.1-.07.17.13,0,0l-.13-.11a3.86,3.86,0,0,1-.5-.49s-.16-.14,0-.05a.39.39,0,1,0,0-.05,1.91,1.91,0,0,1-.16-.27.3.3,0,0,1,0-.08c0-.07,0,0,0,.1,0,0,0-.12-.05-.15s0-.12,0-.14,0,.24,0,0a1,1,0,0,0-1-1,1,1,0,0,0-1,1Z"></path><path class="cls-5" d="M248.7,279.39a2.58,2.58,0,0,0,1.56-.47,6.22,6.22,0,0,0,1-.88,7.19,7.19,0,0,0,.8-1,2.71,2.71,0,0,0,.49-1.39,1,1,0,0,0-1-1,1,1,0,0,0-1,1v.08l0-.26a1.4,1.4,0,0,1-.1.35l.1-.24a4.2,4.2,0,0,1-.5.81l.15-.2a5.35,5.35,0,0,1-1,1l.2-.15a3.32,3.32,0,0,1-.68.41l.24-.1a1.9,1.9,0,0,1-.39.11l.26,0h-.23a1,1,0,0,0-.71.3,1,1,0,0,0,0,1.41,1.1,1.1,0,0,0,.71.29Z"></path><path class="cls-5" d="M244.73,273l.08.16-.11-.24a6.41,6.41,0,0,0,1,2.18,3.4,3.4,0,0,0,.74.57,2.89,2.89,0,0,0,.9.39,1.6,1.6,0,0,0,.58.07,1.35,1.35,0,0,0,.92-.37,1,1,0,0,0,.29-.71,1,1,0,0,0-1-1l-.26,0a1,1,0,0,0-.44.26h0l.2-.15-.07,0,.24-.1-.12,0,.27,0h-.19l.27,0a2.11,2.11,0,0,1-.43-.12l.24.1a3.62,3.62,0,0,1-.68-.41l.2.16a1.53,1.53,0,0,1-.29-.28l.15.2a2.36,2.36,0,0,1-.28-.52l.1.24c-.21-.51-.34-1-.58-1.54a1,1,0,0,0-.6-.46,1,1,0,0,0-.77.1,1,1,0,0,0-.46.6,1.15,1.15,0,0,0,.1.77Z"></path><path class="cls-1" d="M325.21,266.85c.74-2.57,2.14-4.91,4.91-5.11,2.31-.16,4.41,1.6,5.82,3.24,4.73,5.49,5.52,13.51,5.05,20.49-.3,4.45-2,10-7.58,9.49-4.65-.41-6.62-5-7.6-8.94a44,44,0,0,1-1.39-14.66A25.67,25.67,0,0,1,325.21,266.85Z"></path><path class="cls-5" d="M331.57,267.44l-.18,34.75,0,5a1,1,0,0,0,2,0l.18-34.75,0-5a1,1,0,0,0-2,0Z"></path><path class="cls-5" d="M337.06,286.57a7.39,7.39,0,0,1-.74,1.24s-.18.23,0,0l-.12.16-.28.32a7.54,7.54,0,0,1-.58.55c-.11.08.19-.14,0,0l-.14.09-.15.09-.08,0c-.07,0,0,0,.09,0a4.5,4.5,0,0,1-.78.24l-.46.11-.17,0h-.07a4.22,4.22,0,0,1-.87,0,1,1,0,0,0-1,1,1,1,0,0,0,1,1,6.25,6.25,0,0,0,2.06-.23,4.65,4.65,0,0,0,1.8-.81,7.81,7.81,0,0,0,2.24-2.85,1,1,0,0,0-.36-1.37,1,1,0,0,0-1.36.36Z"></path><path class="cls-5" d="M332.13,286H332c-.18,0,.24.05.07,0a1.81,1.81,0,0,0-.31-.09c.25,0,.13.05,0,0l-.16-.08a3.28,3.28,0,0,1-.31-.2c-.19-.14,0,0,0,0s-.12-.1-.15-.12l-.27-.25a5.91,5.91,0,0,1-.48-.52c-.14-.16.09.13,0,.05a.76.76,0,0,1-.08-.11l-.2-.31a7.24,7.24,0,0,1-.38-.73s-.11-.26-.06-.11,0-.09,0-.11-.09-.27-.13-.4l-.09-.39c0-.1,0,.26,0,0a1.27,1.27,0,0,1,0-.2,1,1,0,0,0-1-1,1,1,0,0,0-1,1,5.11,5.11,0,0,0,.54,2.1,7.46,7.46,0,0,0,1,1.6,6.49,6.49,0,0,0,1.34,1.22,2.85,2.85,0,0,0,1.79.61,1,1,0,0,0,0-2Z"></path><path class="cls-5" d="M336.16,281.58v.09c0,.08,0,0,0-.12,0,0,0,.09,0,.12s-.06.15,0,.17.1-.23,0,0a1.75,1.75,0,0,1-.16.27s-.08.14-.09.13.1-.13.05-.07l-.06.07a5.21,5.21,0,0,1-.47.47l-.13.11c-.11.09-.06,0,0,0-.09.06-.18.14-.28.2a5.84,5.84,0,0,1-.53.33l-.37.19-.17.08c-.05,0-.21.11,0,0a3.58,3.58,0,0,1-.72.24l-.21,0c-.19,0,.14,0,0,0a2.32,2.32,0,0,1-.37,0,1,1,0,0,0,0,2,4.61,4.61,0,0,0,1.89-.39,8,8,0,0,0,1.58-.85,4.1,4.1,0,0,0,2.05-3,1,1,0,0,0-1-1,1,1,0,0,0-1,1Z"></path><path class="cls-5" d="M332.09,277.39h-.23l.26,0a1.9,1.9,0,0,1-.39-.11l.24.1a3.32,3.32,0,0,1-.68-.41l.2.15a5.06,5.06,0,0,1-1-1l.15.2a4.2,4.2,0,0,1-.5-.81l.1.24a1.08,1.08,0,0,1-.1-.35l0,.26v-.08a1,1,0,0,0-2,0,2.71,2.71,0,0,0,.49,1.39,6.53,6.53,0,0,0,.8,1,5.84,5.84,0,0,0,1,.88,2.58,2.58,0,0,0,1.56.47,1.05,1.05,0,0,0,.71-.29,1,1,0,0,0,0-1.41,1,1,0,0,0-.71-.3Z"></path><path class="cls-5" d="M334.33,272c-.24.5-.37,1-.58,1.54l.1-.24a2.36,2.36,0,0,1-.28.52l.15-.2a1.53,1.53,0,0,1-.29.28l.2-.16a3.62,3.62,0,0,1-.68.41l.24-.1a2.11,2.11,0,0,1-.43.12l.27,0h-.19l.27,0-.12,0,.23.1-.06,0,.2.15h0a1.08,1.08,0,0,0-.7-.29,1,1,0,0,0-.71.29,1,1,0,0,0,0,1.42,1.37,1.37,0,0,0,.63.33,1.71,1.71,0,0,0,.78,0,2.91,2.91,0,0,0,.9-.35,4.26,4.26,0,0,0,.77-.57,2.72,2.72,0,0,0,.62-1c.17-.41.28-.85.45-1.26l-.1.24c0-.06,0-.11.08-.16a1.09,1.09,0,0,0,.1-.77,1,1,0,0,0-.46-.6,1,1,0,0,0-.77-.1.93.93,0,0,0-.6.46Z"></path><polygon class="cls-7" points="247.09 203.52 247.12 236.16 245.45 233.02 243.78 236.16 242.1 233.03 240.44 236.17 238.77 233.03 237.09 236.17 235.42 233.03 233.76 236.18 233.72 203.53 247.09 203.52"></polygon><rect class="cls-6" x="200.64" y="205.74" width="89.52" height="108.22" transform="translate(-0.3 0.28) rotate(-0.07)"></rect><rect class="cls-5" x="200.59" y="205.74" width="89.52" height="19.57" transform="matrix(1, 0, 0, 1, -0.24, 0.28)"></rect><rect class="cls-6" x="198.37" y="203.52" width="92.47" height="19.56" transform="translate(-0.24 0.28) rotate(-0.07)"></rect><polygon class="cls-8" points="252.52 203.51 252.56 236.15 250.89 233.02 249.21 236.16 247.54 233.02 245.88 236.16 244.2 233.03 242.53 236.17 240.86 233.03 239.19 236.17 239.16 203.53 252.52 203.51"></polygon><rect class="cls-2" x="180.76" y="248.96" width="63.83" height="65.15" transform="translate(-69.1 493.89) rotate(-89.94)"></rect><rect class="cls-7" x="206.94" y="222.82" width="11.54" height="65.15" transform="translate(-42.92 467.81) rotate(-89.93)"></rect><rect class="cls-2" x="179.61" y="248.31" width="67.29" height="11.54" transform="translate(426.21 508.4) rotate(-179.93)"></rect><polygon class="cls-7" points="207.49 248.3 207.47 267.56 208.68 265.7 209.9 267.56 211.12 265.71 212.33 267.56 213.54 265.71 214.76 267.56 215.98 265.71 217.19 267.57 217.21 248.31 207.49 248.3"></polygon><rect class="cls-3" x="176.81" y="248.96" width="63.83" height="65.15" transform="translate(-73.04 489.93) rotate(-89.93)"></rect><rect class="cls-2" x="202.98" y="222.81" width="11.54" height="65.15" transform="translate(-46.87 463.85) rotate(-89.93)"></rect><rect class="cls-3" x="175.65" y="248.3" width="67.29" height="11.54" transform="translate(418.31 508.38) rotate(-179.93)"></rect><polygon class="cls-8" points="203.53 248.3 203.51 267.55 204.73 265.7 205.95 267.55 207.16 265.7 208.37 267.56 209.59 265.71 210.81 267.56 212.03 265.71 213.24 267.56 213.26 248.31 203.53 248.3"></polygon><rect class="cls-2" x="31.34" y="160.46" width="75.92" height="77.48" transform="translate(-130.14 267.81) rotate(-89.8)"></rect><rect class="cls-7" x="62.55" y="129.37" width="13.73" height="77.48" transform="translate(-98.94 236.94) rotate(-89.8)"></rect><rect class="cls-2" x="28.75" y="159.69" width="80.03" height="13.72" transform="translate(0.58 -0.24) rotate(0.2)"></rect><polygon class="cls-8" points="75.66 159.71 75.58 182.61 74.14 180.4 72.68 182.6 71.25 180.39 69.8 182.59 68.36 180.38 66.9 182.58 65.46 180.37 64.01 182.57 64.09 159.67 75.66 159.71"></polygon><rect class="cls-7" x="26.69" y="237.7" width="75.92" height="77.48" transform="translate(-212.01 340.13) rotate(-89.8)"></rect><rect class="cls-9" x="57.9" y="206.6" width="13.73" height="77.48" transform="translate(-180.81 309.25) rotate(-89.8)"></rect><rect class="cls-7" x="24.1" y="236.92" width="80.03" height="13.72" transform="translate(0.85 -0.22) rotate(0.2)"></rect><polygon class="cls-3" points="71.01 236.94 70.93 259.84 69.49 257.63 68.03 259.83 66.6 257.62 65.15 259.82 63.71 257.61 62.25 259.81 60.81 257.6 59.36 259.8 59.44 236.9 71.01 236.94"></polygon><rect class="cls-5" x="90.4" y="237.92" width="75.92" height="77.48" transform="translate(-148.74 404.05) rotate(-89.8)"></rect><rect class="cls-7" x="121.6" y="206.82" width="13.73" height="77.48" transform="translate(-117.54 373.17) rotate(-89.8)"></rect><rect class="cls-5" x="87.81" y="237.14" width="80.03" height="13.72" transform="translate(0.85 -0.44) rotate(0.2)"></rect><polygon class="cls-7" points="134.72 237.16 134.63 260.06 133.2 257.86 131.74 260.05 130.3 257.85 128.85 260.04 127.42 257.83 125.96 260.03 124.52 257.82 123.07 260.02 123.15 237.12 134.72 237.16"></polygon><rect class="cls-6" x="95.1" y="237.93" width="75.92" height="77.48" transform="translate(-144.07 408.77) rotate(-89.8)"></rect><rect class="cls-5" x="126.31" y="206.84" width="13.73" height="77.48" transform="translate(-112.87 377.89) rotate(-89.8)"></rect><rect class="cls-6" x="92.51" y="237.16" width="80.03" height="13.72" transform="translate(0.85 -0.46) rotate(0.2)"></rect><polygon class="cls-8" points="139.42 237.18 139.34 260.08 137.9 257.87 136.44 260.07 135.01 257.86 133.56 260.06 132.12 257.85 130.66 260.05 129.22 257.84 127.77 260.04 127.85 237.14 139.42 237.18"></polygon><path class="cls-1" d="M512.52,354.48h-148a1.07,1.07,0,0,1-1.06-1.07h0a1.07,1.07,0,0,1,1.06-1.06h148a1.07,1.07,0,0,1,1.07,1.06h0a1.06,1.06,0,0,1-1,1.07Z"></path><path class="cls-1" d="M579.31,354.48H526.17a1.06,1.06,0,0,1-1.06-1.07h0a1.06,1.06,0,0,1,1.06-1.06h53.14Z"></path><path class="cls-10" d="M492,273.74c-9.36-17-13.2-24.8-2.75-26.29l1.17-.16,3.51,5.07,1.89,19.32C496.72,276.4,493.33,276.11,492,273.74Z"></path><path class="cls-11" d="M507.69,166.87s28.59,26.66,39.64,42.28a8.33,8.33,0,0,1-2,11.61l-.44.29L494,252.5l-3.51-5.21c19.48-17.63,29.7-30.36,45.93-34.93,0,0-28.5-13.12-33.06-26.47Z"></path><path class="cls-10" d="M523.24,295.92a58.12,58.12,0,0,0,.46,9.78V306a55.74,55.74,0,0,0,8,21.94c.25.4.52.8.78,1.17a56.07,56.07,0,0,0,16.38,16.27c.46.29.87.56,1.28.8a55.41,55.41,0,0,0,24.45,8c.48,0,1,.08,1.47.11l1.17.06a55.86,55.86,0,0,0,31.48-8.07c.41-.23.82-.5,1.24-.77A56.39,56.39,0,0,0,623,333.92a3.94,3.94,0,0,0,.36-.45c.41-.5.86-1.08,1.32-1.71l.42-.57h.06l.88-1.36.64-.91h0v-.06l.08-.11c.51-.81.91-1.43,1.27-2s.76-1.32,1.17-2.1a55.91,55.91,0,0,0,6.5-23.51v-1.48a56.32,56.32,0,0,0-11.79-36c-.3-.39-.6-.78-.92-1.17a56.43,56.43,0,0,0-30.54-19.12L591,243a56.6,56.6,0,0,0-9-1.17h-.28A56.38,56.38,0,0,0,523.24,295.92Zm36.14-45.36,18,47.07-42.06-26.31a52.13,52.13,0,0,1,24-20.76Zm17.15,48.16-48.67,1.88c-.07-1.5-.07-3,0-4.5a51.13,51.13,0,0,1,6.8-23.58Zm13.59-51.16L578.65,297l-18-46.91a51.57,51.57,0,0,1,20.93-3.51h.32a51.77,51.77,0,0,1,8.14,1Zm29.39,17.86L580,297.51l11.51-49.64a51.83,51.83,0,0,1,28,17.55Zm11.71,34.11h0l-50.49-.9,39.66-32.14a51.68,51.68,0,0,1,10.75,33Zm-6.14,22.92c-.37.71-.74,1.34-1.08,1.91s-.77,1.27-1.17,1.87l-.08.12-.37.58-.13.17h0L581.09,300l49.95.87A51.42,51.42,0,0,1,625.08,322.45Zm-17.73,19.24h0l-26.21-40,40.31,26.54-.85,1.17c-.31.41-.61.8-.91,1.17l-.27.33a52.05,52.05,0,0,1-12,10.76Zm-31.09,8.1,3-48.31,26.93,41a51.76,51.76,0,0,1-29.94,7.34Zm-23.75-7.48L577.89,302l-3,47.69A51,51,0,0,1,552.51,342.31Zm-16.2-15.62,40.23-25.21-25.2,40.09A51.73,51.73,0,0,1,536.31,326.69Zm-8.09-21.47c-.15-1.07-.25-2.15-.33-3.23l48.27-1.88-40.6,25.4a51.13,51.13,0,0,1-7.31-20v-.1Z"></path><path class="cls-10" d="M361.57,298.18a57,57,0,0,0,.84,9.76v.1l.06.21a55.35,55.35,0,0,0,8.85,21.6c.26.4.54.8.82,1.17a56.52,56.52,0,0,0,17.05,15.61c.47.28.88.52,1.31.74a55.26,55.26,0,0,0,24.76,7h2.62A56.11,56.11,0,0,0,449,345c.39-.25.79-.53,1.17-.83a56.17,56.17,0,0,0,12.58-12.14l.35-.46c.39-.52.81-1.12,1.24-1.76l.41-.6h.06l.82-1.39.61-1h0v-.06l.07-.11c.49-.82.85-1.47,1.17-2.09s.71-1.34,1.1-2.14a56,56,0,0,0,5.54-23.75v-1.49a56.41,56.41,0,0,0-13.25-35.46c-.32-.38-.64-.75-1-1.12A56.32,56.32,0,0,0,428.66,243l-1.41-.27a55.68,55.68,0,0,0-9-.77h-.32A56.37,56.37,0,0,0,361.57,298.18Zm34.28-46.77,19.9,46.31-43.08-24.58a52.06,52.06,0,0,1,23.18-21.73Zm19.06,47.42-48.52,3.82c-.14-1.5-.2-3-.2-4.5a51.43,51.43,0,0,1,5.86-23.84Zm11.53-51.65L417,297l-19.84-46.15a51.41,51.41,0,0,1,20.78-4.38h.32A51.45,51.45,0,0,1,426.44,247.18Zm30.08,16.66-38.25,33.65,9.52-50.06A51.89,51.89,0,0,1,456.52,263.84Zm13,33.62h0l-50.47,1.17,38.33-33.71a51.62,51.62,0,0,1,12.15,32.54Zm-5.08,23.13c-.35.73-.68,1.37-1,2s-.72,1.28-1.1,1.92v.11l-.36.59-.12.19h0L419.69,300l49.94-1.17a51.35,51.35,0,0,1-5.14,21.8Zm-17,19.9h0l-27.79-38.87,41.35,24.88-.81,1.23c-.28.41-.57.81-.87,1.17a2.7,2.7,0,0,1-.25.34,52,52,0,0,1-11.61,11.29Zm-30.74,9.37,1.11-48.38,28.47,39.8a51.63,51.63,0,0,1-29.56,8.59Zm-24.08-6.51L416.44,302l-1,47.77a51,51,0,0,1-22.68-6.45Zm-16.8-15,39.19-26.77-23.58,41A51.76,51.76,0,0,1,375.91,328.4Zm-9-21.07c-.18-1.06-.32-2.14-.45-3.22l48.15-3.81-39.55,26.93A51.1,51.1,0,0,1,367,307.55v-.09Z"></path><path class="cls-12" d="M418.34,299a2.09,2.09,0,0,0,.54,2.9l.14.09h0a2,2,0,0,0,1.1.26l79.6-3.22,53.84-59.35,23.17,61.45,4.41-1.82-32.72-88,19.2-1.57h0a3.87,3.87,0,0,0-3.87-3.9,3.63,3.63,0,0,0-.57,0l-15.94,2.25-1.29.21a1.69,1.69,0,0,0-1.79-1.1h-.57a1.71,1.71,0,0,0-1.52,1.88,1.41,1.41,0,0,0,.11.46l1.41,3.74-62-3.44L476,197.3l-2.63,1.17,5.67,13Zm95.53-19.9-30.25-65,61.56,3.4,7.25,19.24Zm-93,20.85,59.38-84.79,31.43,66.34L498.23,296.3Z"></path><path class="cls-6" d="M418.34,299a2.09,2.09,0,0,0,.54,2.9l.14.09h0a2,2,0,0,0,1.1.26l79.6-3.22,53.84-59.35,23.17,61.45,4.41-1.82-32.72-88,19.2-1.57h0a3.87,3.87,0,0,0-3.87-3.9,3.63,3.63,0,0,0-.57,0l-15.94,2.25-1.29.21a1.69,1.69,0,0,0-1.79-1.1h-.57a1.71,1.71,0,0,0-1.52,1.88,1.41,1.41,0,0,0,.11.46l1.41,3.74-62-3.44L476,197.3l-2.63,1.17,5.67,13Zm95.53-19.9-30.25-65,61.56,3.4,7.25,19.24Zm-93,20.85,59.38-84.79,31.43,66.34L498.23,296.3Z"></path><path class="cls-10" d="M560.4,230h0a2,2,0,0,0,3,1,27.68,27.68,0,0,0,11.87-19.73l-6.88-.43c1.17,7-1.51,12.59-7.34,17A2,2,0,0,0,560.4,230Z"></path><path class="cls-10" d="M556.6,222.26h0a1.45,1.45,0,0,0,1.81.91,1.52,1.52,0,0,0,.38-.2,20,20,0,0,0,8.51-14.33l-5-.28c.9,5.07-1,9.11-5.25,12.33A1.44,1.44,0,0,0,556.6,222.26Z"></path><path class="cls-12" d="M563.89,205.87l11.41,5.34h0a4.68,4.68,0,0,1-4.54,4h-2.18l-6-4.07V206.9Z"></path><path class="cls-10" d="M467.06,194.28h23.5A1.87,1.87,0,0,1,492,197.4a4.46,4.46,0,0,1-3.15,1.32h-4a15.57,15.57,0,0,0-9,2.88l-1.17.78a6,6,0,0,1-3.51,1.17h-1.17a5.54,5.54,0,0,1-5-3.22l-.74-1.87a3,3,0,0,1,1.69-4A2.9,2.9,0,0,1,467.06,194.28Z"></path><path class="cls-3" d="M574.07,299.35a4.47,4.47,0,1,0,4.47-4.47,4.47,4.47,0,0,0-4.47,4.47Z"></path><polygon class="cls-6" points="419.23 291.97 487.1 285.48 487.92 282.61 418.97 289.21 419.23 291.97"></polygon><rect class="cls-6" x="452.29" y="276.2" width="2.77" height="73.57" transform="translate(121.9 753.1) rotate(-87.59)"></rect><path class="cls-3" d="M407.24,295.91a11.45,11.45,0,1,0,0-.09Z"></path><path class="cls-6" d="M413.3,300.92a4.83,4.83,0,1,0,4.83-4.84,4.83,4.83,0,0,0-4.83,4.84Z"></path><path class="cls-13" d="M480.85,298.88a15.76,15.76,0,0,0,4.68,11.19,14.56,14.56,0,0,0,1.51,1.32,15.8,15.8,0,0,0,19.27,0,14.66,14.66,0,0,0,1.51-1.33h0a15.79,15.79,0,0,0-21.31-23.26,16.08,16.08,0,0,0-5.66,12.08Zm23.41-11.19v.22a7.66,7.66,0,0,1-1.59,4,7.93,7.93,0,0,1-1.29,1.3h0a7.66,7.66,0,0,1-9.44,0h0a7.44,7.44,0,0,1-1.28-1.29,7.61,7.61,0,0,1-1.61-4.19,11.82,11.82,0,0,1,15.22,0Zm-7.94,9.11a2.42,2.42,0,1,1-2.42,2.42,2.42,2.42,0,0,1,2.42-2.42Zm7.5,7.93h0a7.63,7.63,0,0,1,0-9.36h0a7.5,7.5,0,0,1,1.29-1.29,7.59,7.59,0,0,1,3.91-1.59,11.81,11.81,0,0,1-1.55,14.86,7.3,7.3,0,0,1-2.35-1.25h0a7.25,7.25,0,0,1-1.32-1.39Zm-14.39,5.85a7.65,7.65,0,0,1,9.72-4.75,7.53,7.53,0,0,1,2.2,1.18h0a8,8,0,0,1,1.3,1.3h0a7.6,7.6,0,0,1,1.23,2.25,11.88,11.88,0,0,1-14.48,0ZM482.67,299a11.7,11.7,0,0,1,1.92-6.47,7.42,7.42,0,0,1,3.92,1.59,7.11,7.11,0,0,1,1.28,1.29h0a7.65,7.65,0,0,1,0,9.42,7.22,7.22,0,0,1-1.29,1.3,7.68,7.68,0,0,1-2.34,1.26,11.78,11.78,0,0,1-3.5-8.46Z"></path><path class="cls-6" d="M480.85,298.88a15.76,15.76,0,0,0,4.68,11.19,14.56,14.56,0,0,0,1.51,1.32,15.8,15.8,0,0,0,19.27,0,14.66,14.66,0,0,0,1.51-1.33h0a15.79,15.79,0,0,0-21.31-23.26,16.08,16.08,0,0,0-5.66,12.08Zm23.41-11.19v.22a7.66,7.66,0,0,1-1.59,4,7.93,7.93,0,0,1-1.29,1.3h0a7.66,7.66,0,0,1-9.44,0h0a7.44,7.44,0,0,1-1.28-1.29,7.61,7.61,0,0,1-1.61-4.19,11.82,11.82,0,0,1,15.22,0Zm-7.94,9.11a2.42,2.42,0,1,1-2.42,2.42,2.42,2.42,0,0,1,2.42-2.42Zm7.5,7.93h0a7.63,7.63,0,0,1,0-9.36h0a7.5,7.5,0,0,1,1.29-1.29,7.59,7.59,0,0,1,3.91-1.59,11.81,11.81,0,0,1-1.55,14.86,7.3,7.3,0,0,1-2.35-1.25h0a7.25,7.25,0,0,1-1.32-1.39Zm-14.39,5.85a7.65,7.65,0,0,1,9.72-4.75,7.53,7.53,0,0,1,2.2,1.18h0a8,8,0,0,1,1.3,1.3h0a7.6,7.6,0,0,1,1.23,2.25,11.88,11.88,0,0,1-14.48,0ZM482.67,299a11.7,11.7,0,0,1,1.92-6.47,7.42,7.42,0,0,1,3.92,1.59,7.11,7.11,0,0,1,1.28,1.29h0a7.65,7.65,0,0,1,0,9.42,7.22,7.22,0,0,1-1.29,1.3,7.68,7.68,0,0,1-2.34,1.26,11.78,11.78,0,0,1-3.5-8.46Z"></path><path class="cls-3" d="M478,298.88a18.46,18.46,0,0,0,4.12,11.7,18.11,18.11,0,0,0,4.37,4,18.63,18.63,0,1,0,.45-31.56,18.83,18.83,0,0,0-7,7.55A18.46,18.46,0,0,0,478,298.88Zm2.87,0a15.85,15.85,0,0,1,2.56-8.63,15.39,15.39,0,0,1,3.08-3.51A15.79,15.79,0,0,1,507.79,310h0a12.72,12.72,0,0,1-1.51,1.33,15.79,15.79,0,0,1-19.26,0,12.63,12.63,0,0,1-1.51-1.32A15.74,15.74,0,0,1,480.85,298.88Z"></path><path class="cls-11" d="M489.47,317.87h4.41V299.59a2.21,2.21,0,0,0-2.21-2.2h0a2.21,2.21,0,0,0-2.2,2.2h0Z"></path><path class="cls-11" d="M485.54,317.37l9,2.92a1.37,1.37,0,0,0,1.71-.88h0a1.34,1.34,0,0,0-.86-1.7h0l-9-2.92a1.38,1.38,0,0,0-1.72.88h0A1.36,1.36,0,0,0,485.54,317.37Z"></path><path class="cls-10" d="M557.83,72.89c1.74,1.74-2,8.29-8.37,14.64s-12.87,10.1-14.63,8.37,2-8.29,8.36-14.64S556.1,71.16,557.83,72.89Z"></path><polygon class="cls-14" points="548.02 100.71 554.45 106.49 558.95 101.49 564.19 95.65 557.76 89.87 555.29 92.63 548.02 100.71"></polygon><path class="cls-14" d="M574.23,70.75a30.68,30.68,0,0,1,.82,6.25,3.51,3.51,0,0,0,1,2.55l3.37,3.27a1,1,0,0,1,.15,1.31,4,4,0,0,1-2,1.67,21.14,21.14,0,0,1-3,9.37,6.27,6.27,0,0,1-3.71,2.55c-16.16,4-23.78-3.1-25.43-19.28a14.13,14.13,0,0,1,2.82-9.92c3.41-4.46,10.31-11.28,18.67-7.31A13.56,13.56,0,0,1,574.23,70.75Z"></path><path class="cls-6" d="M568.81,78a.42.42,0,0,0,.31-.18,2.51,2.51,0,0,1,3.44-.87.4.4,0,0,0,.51-.62l-.09,0a3.26,3.26,0,0,0-4.49,1.06l0,0a.4.4,0,0,0,.09.54h0A.42.42,0,0,0,568.81,78Z"></path><path class="cls-10" d="M575.18,87.91a.45.45,0,0,0-.33-.12,2.51,2.51,0,0,1-3-2h0a.36.36,0,0,0-.43-.31h0a.39.39,0,0,0-.32.45h0A3.27,3.27,0,0,0,575,88.58h0a.4.4,0,0,0,.34-.45A.48.48,0,0,0,575.18,87.91Z"></path><path class="cls-6" d="M579.11,68s2.19,4.91-2.88,5.71l-.1-3.23a11.93,11.93,0,0,1-10,4.82l.49-2.6C563.49,76.12,565,85.5,565,85.5s-2.18-4.68-4.45-6.68a3,3,0,0,0-4.16.27,2.91,2.91,0,0,0-.68,1.41,6.42,6.42,0,0,0,1.42,5.23,3.73,3.73,0,0,0,3.62,1.54h.07a16.32,16.32,0,0,1,0,6.23c-.62,2.59-2.94,4-6,3.72a8.94,8.94,0,0,1-6-3.26,27,27,0,0,1-6.27-16.55,18.5,18.5,0,0,1,9.8-17.64c5.12-2.9,13.81-2.34,20.22.72a18.71,18.71,0,0,0,4,1.4c3,.66,8.5,3,4.85,11C581.37,72.94,579,67.57,579.11,68Z"></path><path class="cls-11" d="M573.2,60.83a263.42,263.42,0,0,1-28.63,26.23s-12-14.21-3.51-25.94a18.86,18.86,0,0,1,8.19-6.31C555.05,52.48,565.2,50.52,573.2,60.83Z"></path><path class="cls-10" d="M572.9,80.37a1.17,1.17,0,1,1-1.41-.91,1.17,1.17,0,0,1,1.41.91Z"></path><path class="cls-11" d="M489.3,226.77l2.21-44.4-2.6-4.68a19.18,19.18,0,0,1,3.35-22.89l4.56-4.5,20,7.46-7,23.69c.15,21.16-.83,40.22-6.94,49.71a52.78,52.78,0,0,0-5.12,9.54,224.82,224.82,0,0,0-14.11,61.48l-9.16-.18C471.4,271.56,474.47,246.18,489.3,226.77Z"></path><path class="cls-4" d="M556,110.68a30.92,30.92,0,0,1-.68,5.06c-.41,2-.95,4.21-1.51,6.36a38.11,38.11,0,0,1-2,5.58,38.5,38.5,0,0,1-10,13.54l-1,.89c-1.17,1-12.12,11.31-12.12,11.31l-9.52,24.48s-22.87-2.84-30-19a23,23,0,0,1-1.27-3.63,57,57,0,0,1,5.09-7.36c3.23-4,7.71-8.19,15.41-14.21,0,0,16.61-27.06,21.54-30.88S543.54,97,545.78,97a22.24,22.24,0,0,0,3.64-.29c1.17-.19,2.17-.39,2.17-.39a37.06,37.06,0,0,1,4.24,12.07A15.23,15.23,0,0,1,556,110.68Z"></path><path class="cls-10" d="M496.24,317.72c-18.79-5-27.07-7.52-20.95-16.11a.12.12,0,0,1,.06-.1l6.7.11,15.29,11.94C501.43,316.13,498.86,318.4,496.24,317.72Z"></path><path class="cls-14" d="M566.8,214.59a2,2,0,0,1,.21,1,4.68,4.68,0,0,0,5,3.8c4.45-.37,8.61-7,5.09-10.64-1.59-1.67-3.94-2.34-6.18-2.88a79.89,79.89,0,0,0-10.37-2.16,5.86,5.86,0,0,0-4.36.72,1.64,1.64,0,0,0-.7,1.31,1.93,1.93,0,0,0,.38,1,16.7,16.7,0,0,0,9.85,7.32A1.78,1.78,0,0,1,566.8,214.59Z"></path><path class="cls-14" d="M532.69,159.29c-.25,15.73,23.06,46.82,23.06,46.82l5-1.58c-4.94-14.89-11.84-33.18-14.44-41,0,0,.47-10.71,1.51-22.95L533,138.51Z"></path><path class="cls-4" d="M524.74,134.42a2.34,2.34,0,0,0,1.41,3,2.28,2.28,0,0,0,.45.11l6.38.9,14.85,2.1h.24l4.81-27.4c.93-8.36-2.68-10.61-3.09-10.84h0a8.21,8.21,0,0,0-6.2-2.4,9.58,9.58,0,0,0-8.2,5.62h0a11.93,11.93,0,0,0-.53,1.56h0Z"></path><path class="cls-4" d="M498.28,70.35A2.35,2.35,0,1,1,495.94,68,2.34,2.34,0,0,1,498.28,70.35Z"></path><path class="cls-4" d="M500,74.84a1.53,1.53,0,1,1-2.17,0h0A1.52,1.52,0,0,1,500,74.84Z"></path><path class="cls-10" d="M18.79,314.34a21.66,21.66,0,0,0,1.33,6.26c1.22,3.12,6.79,5.37,13.25,5.37H304.62c5.23,0,10-1.5,12.18-3.84q3.68-3.88,7.33-7.79Zm23,8a3,3,0,1,1,3-3A3,3,0,0,1,41.83,322.38Z"></path><path class="cls-2" d="M41.83,315.19A4.22,4.22,0,1,0,46,319.41,4.22,4.22,0,0,0,41.83,315.19Zm0,7.19a3,3,0,1,1,3-3A3,3,0,0,1,41.83,322.38Z"></path><path class="cls-2" d="M416.57,297.2l-17.23,17.23H278.1a1,1,0,0,0-.35.88c.12.5.93,1,1.72,1.43,3.24,1.85,0,3.7,3.22,5.56,25.84,0,91.83-.07,120-.07l19.46-19.46Z"></path><path class="cls-7" d="M416.57,297.2l-17.23,17.23H278.1a1,1,0,0,0-.35.88c.12.5.91,1,1.7,1.41H400.29l2.29-2.29,15.61-15.61Z"></path><path class="cls-15" d="M38.82,319.41a3,3,0,1,1,3,3A3,3,0,0,1,38.82,319.41Zm.07,0a2.94,2.94,0,1,0,2.94-2.94A2.94,2.94,0,0,0,38.89,319.41Z"></path><path class="cls-6" d="M230.32,321.11c0,.65-.77,1.18-1.72,1.18h-8.14c-1,0-1.72-.53-1.72-1.18v-1.54c0-.66.77-1.19,1.72-1.19h8.14c1,0,1.72.53,1.72,1.19Z"></path><path class="cls-16" d="M224.2,318.38h-3.74c-1,0-1.72.53-1.72,1.19v1.54c0,.65.77,1.18,1.72,1.18h3.74Z"></path><path class="cls-6" d="M182.87,321.11c0,.65-.77,1.18-1.72,1.18H173c-.95,0-1.72-.53-1.72-1.18v-1.54c0-.66.77-1.19,1.72-1.19h8.14c.95,0,1.72.53,1.72,1.19Z"></path><path class="cls-16" d="M176.75,318.38H173c-.95,0-1.72.53-1.72,1.19v1.54c0,.65.77,1.18,1.72,1.18h3.74Z"></path><path class="cls-6" d="M88,321.11c0,.65-.77,1.18-1.72,1.18H78.11c-1,0-1.72-.53-1.72-1.18v-1.54c0-.66.77-1.19,1.72-1.19h8.14c1,0,1.72.53,1.72,1.19Z"></path><path class="cls-16" d="M81.84,318.38H78.11c-1,0-1.72.53-1.72,1.19v1.54c0,.65.77,1.18,1.72,1.18h3.73Z"></path><path class="cls-10" d="M16.71,325.27V314.38a4.2,4.2,0,0,1,4.18-4.18h0a3.44,3.44,0,0,1,3.43,3.4.25.25,0,0,0,0,.08l1.53,11.59Z"></path><path class="cls-17" d="M25.84,325.27l-1.53-11.58a.28.28,0,0,1,0-.09,3.4,3.4,0,0,0-3.38-3.35h0a4.13,4.13,0,0,0-4.12,4.13v10.89h-.11V314.38a4.24,4.24,0,0,1,4.23-4.23h0a3.49,3.49,0,0,1,3.48,3.45s0,0,0,.07L26,325.27Z"></path><path class="cls-6" d="M16.71,315.31v8.59h.05a2.3,2.3,0,0,0,2.29-2.29v-4a2.3,2.3,0,0,0-2.29-2.29Z"></path><path class="cls-2" d="M91.46,320.59a36.28,36.28,0,0,1,72.18,0Z"></path><path class="cls-18" d="M91.31,320.58a36.44,36.44,0,0,1,72.49,0l0,.17H91.29Zm36.24-32.36a36,36,0,0,0-35.91,32.22h71.83A36,36,0,0,0,127.55,288.22Z"></path><path class="cls-15" d="M156.63,325.12a29.41,29.41,0,1,1-29.41-29.4A29.4,29.4,0,0,1,156.63,325.12Z"></path><path class="cls-10" d="M156.63,325.12a29.41,29.41,0,1,1-29.41-29.4A29.4,29.4,0,0,1,156.63,325.12Z"></path><path class="cls-10" d="M152.46,325.12a25.24,25.24,0,1,1-25.24-25.23A25.24,25.24,0,0,1,152.46,325.12Z"></path><path class="cls-19" d="M148.88,325.12a21.65,21.65,0,1,1-21.66-21.65A21.66,21.66,0,0,1,148.88,325.12Z"></path><path class="cls-10" d="M148.88,325.12a21.65,21.65,0,1,1-21.66-21.65A21.66,21.66,0,0,1,148.88,325.12Z"></path><path class="cls-4" d="M142.52,325.12a15.29,15.29,0,1,1-15.3-15.29A15.3,15.3,0,0,1,142.52,325.12Z"></path><path class="cls-15" d="M111.79,325.12a15.44,15.44,0,1,1,15.43,15.44A15.46,15.46,0,0,1,111.79,325.12Zm.3,0A15.14,15.14,0,1,0,127.22,310,15.15,15.15,0,0,0,112.09,325.12Z"></path><path class="cls-2" d="M137.84,325.3a10.61,10.61,0,1,1-10.62-10.62A10.62,10.62,0,0,1,137.84,325.3Z"></path><path class="cls-2" d="M131.42,320l4.79-6.05a14.77,14.77,0,0,1,4,5l-6.93,3.37A6.81,6.81,0,0,0,131.42,320Z"></path><path class="cls-2" d="M136.25,336.6a14.63,14.63,0,0,1-5.8,2.8l-1.71-7.52a6.71,6.71,0,0,0,2.7-1.3Z"></path><path class="cls-2" d="M121.13,322.38l-6.95-3.33a14.43,14.43,0,0,1,4-5l4.82,6A6.8,6.8,0,0,0,121.13,322.38Z"></path><path class="cls-2" d="M134,325.3v-.05h7.7v.05a14.32,14.32,0,0,1-1.43,6.27l-6.94-3.34A6.76,6.76,0,0,0,134,325.3Z"></path><path class="cls-2" d="M120.46,325.31a6.88,6.88,0,0,0,.68,2.93l-6.93,3.36a14.34,14.34,0,0,1-1.45-6.27Z"></path><path class="cls-2" d="M124,311.2a14.69,14.69,0,0,1,6.43,0l-1.69,7.52a7,7,0,0,0-3,0Z"></path><path class="cls-2" d="M125.73,331.88,124,339.4a14.43,14.43,0,0,1-5.81-2.78l4.8-6A6.68,6.68,0,0,0,125.73,331.88Z"></path></svg> 